STARTFONT 2.3
FONT -FontForge-Henny Penny-Book-R-Normal--32-320-72-72-P-184-ISO10646-1
SIZE 32 72 72  2
FONTBOUNDINGBOX 45 56 -5 -20
COMMENT "Generated by fontforge, http://fontforge.sourceforge.net"
COMMENT "Copyright (c) 2012, Brownfox (gayaneh.b@gmail.com), with Reserved Font Name "Henny Penny""
STARTPROPERTIES 40
FOUNDRY "FontForge"
FAMILY_NAME "Henny Penny"
WEIGHT_NAME "Book"
SLANT "R"
SETWIDTH_NAME "Normal"
ADD_STYLE_NAME ""
PIXEL_SIZE 32
POINT_SIZE 320
RESOLUTION_X 72
RESOLUTION_Y 72
SPACING "P"
AVERAGE_WIDTH 184
CHARSET_REGISTRY "ISO10646"
CHARSET_ENCODING "1"
FONTNAME_REGISTRY ""
CHARSET_COLLECTIONS "ISO10646-1"
BITS_PER_PIXEL 2
FONT_NAME "HennyPenny-Regular"
FACE_NAME "Henny Penny"
COPYRIGHT "Copyright (c) 2012, Brownfox (gayaneh.b@gmail.com), with Reserved Font Name "Henny Penny""
FONT_VERSION "1.001"
FONT_ASCENT 26
FONT_DESCENT 6
UNDERLINE_POSITION -3
UNDERLINE_THICKNESS 2
X_HEIGHT 19
CAP_HEIGHT 24
RAW_ASCENT 799
RAW_DESCENT 200
NORM_SPACE 9
RELATIVE_WEIGHT 40
RELATIVE_SETWIDTH 50
SUPERSCRIPT_X 0
SUPERSCRIPT_Y 11
SUPERSCRIPT_SIZE 19
SUBSCRIPT_X 0
SUBSCRIPT_Y 2
SUBSCRIPT_SIZE 19
AVG_LOWERCASE_WIDTH 164
AVG_UPPERCASE_WIDTH 230
ENDPROPERTIES
CHARS 233
STARTCHAR space
ENCODING 32
SWIDTH 270 0
DWIDTH 9 0
BBX 1 1 0 0
BITMAP
00
ENDCHAR
STARTCHAR exclam
ENCODING 33
SWIDTH 249 0
DWIDTH 8 0
BBX 6 31 1 -1
BITMAP
2F40
3FC0
7FC0
7FD0
7FD0
3FD0
3FD0
2FC0
2FC0
1FC0
1FC0
0FC0
0F80
0F80
0B80
0B40
0B40
0B40
0B00
0B00
0600
0600
0500
0400
0000
0000
0000
2E00
3F80
3F80
1F40
ENDCHAR
STARTCHAR quotedbl
ENCODING 34
SWIDTH 292 0
DWIDTH 9 0
BBX 7 12 1 15
BITMAP
0074
3878
78B8
78B8
7878
3878
3874
2874
2874
2830
1830
0420
ENDCHAR
STARTCHAR numbersign
ENCODING 35
SWIDTH 1030 0
DWIDTH 33 0
BBX 30 36 2 -10
BITMAP
0000000080000000
0000000180000000
0000000340000000
0000000600000000
0000000901800000
0000000C02400000
0000001803000000
000000340A000000
000000600C000000
554000A028000000
6AAAFFFAB9000000
00000795F95AAFD0
00000701D0000000
00000A0280000000
00000D0340000000
0000180700000000
0000340D00000000
0000701C016B4000
0001E5BEAA540000
16AFFEF500000000
FEABC0E000000000
000741C000000000
000F028000000000
001E074000000000
003C0B0000000000
00780D0000000000
00B42C0000000000
00E0380000000000
01D0740000000000
0280A00000000000
0001D00000000000
0002C00000000000
0003800000000000
000B000000000000
000E000000000000
0008000000000000
ENDCHAR
STARTCHAR dollar
ENCODING 36
SWIDTH 799 0
DWIDTH 26 0
BBX 19 36 3 -7
BITMAP
0000001000
0000006000
0000006008
0000009028
0000AFE9B4
0007E4EFF0
001FC0C7E0
002F8182D0
003F8141D0
007FC240C0
007FD300C0
003FF30080
002FFE0000
001FFE0000
000BFF4000
0003FFD000
0001FFF000
00007FFC00
00002FFE00
00002BFF40
000031FF80
010030BFC0
0500603FD0
0500902FD0
0A00901FD0
0E00C00FD0
1F00800FC0
2F41801F80
3FC2402F40
66E3007E00
807F01F400
000BFE4000
0009000000
0009000000
000C000000
0018000000
ENDCHAR
STARTCHAR percent
ENCODING 37
SWIDTH 789 0
DWIDTH 25 0
BBX 25 30 0 0
BITMAP
006FE000002000
02E0BD0000A000
0BC02F0001C000
0F801F40034000
1F800F800A0000
1FC00F802C0000
1FC00F80740000
0FD00F40E00000
0BE01E02C00000
02F87C07400000
006F901E000000
00000038000000
000000B0000000
000001D0000000
00000380000000
00000B00000000
00002D00000000
00007401BF9000
0000E00B91F800
0002C02F007D00
0007403E003F00
000E007D002F40
002800BC002F40
007000BC002F40
01D000BD002F40
0380007D003F00
0B00003F007D00
1D00001F81F400
34000002FE8000
60000000000000
ENDCHAR
STARTCHAR ampersand
ENCODING 38
SWIDTH 773 0
DWIDTH 25 0
BBX 23 31 1 -3
BITMAP
0006FD000000
002D0B800000
007403C00000
00E002D00000
01D003C00000
02D00BC00000
02D01F400000
02E03E000000
01E0FC000000
01F7F4000000
01FFD0000700
00FF80001F40
00FE0000BF40
03FE001BFF40
0BFF42A42F40
1FEF80000F00
3FCFD0000F00
7F87F0000E00
BF42F8000D00
FF41FE001D00
FF407F402800
FF402FD03400
BF400FF4A000
7F8007FEC000
3FD001FF8004
1FF000BFD008
07FD01FFF974
006FFA0BFFE0
00000002FFD0
00000000BF80
000000001A00
ENDCHAR
STARTCHAR quotesingle
ENCODING 39
SWIDTH 174 0
DWIDTH 6 0
BBX 3 10 1 15
BITMAP
38
7C
7C
7C
3C
3C
28
18
18
04
ENDCHAR
STARTCHAR parenleft
ENCODING 40
SWIDTH 431 0
DWIDTH 14 0
BBX 14 45 0 -13
BITMAP
00020000
000A0000
001C0000
00380000
00B00000
00E00000
02D00000
03C00000
07C00000
0B800000
0F400000
1F400000
2F000000
3F000000
3F000000
7F000000
7E000000
7E000000
BE000000
BE000000
BE000000
BE000000
BF000000
BF000000
7F000000
7F400000
3F400000
3F800000
2FC00000
1FD00000
0FE00000
0BF00000
07F40000
02F80000
01FC0000
00BE0000
007F0000
002F8000
000BD000
0003E000
0001F400
00007D00
00001F00
00000780
000001A0
ENDCHAR
STARTCHAR parenright
ENCODING 41
SWIDTH 443 0
DWIDTH 14 0
BBX 14 31 0 -7
BITMAP
0A400000
02F40000
00BE0000
002FC000
000BF000
0002F800
0001FD00
0000BF00
00007F80
00002FC0
00001FD0
00001FD0
00000FE0
00000FE0
00000BF0
00000BF0
00000BE0
00000BE0
00000FE0
00000FD0
00001FC0
00002F80
00003F00
0000BE00
0000FC00
0002F400
000BD000
002F4000
00BC0000
0BE00000
7E000000
ENDCHAR
STARTCHAR asterisk
ENCODING 42
SWIDTH 490 0
DWIDTH 16 0
BBX 13 14 1 16
BITMAP
00040000
002E0000
002F0000
001F0140
000F0BC0
000B1F40
69076D00
7FE6A400
1AABC000
000AE000
007C7D00
02F43F00
03D01F80
00000B80
ENDCHAR
STARTCHAR plus
ENCODING 43
SWIDTH 440 0
DWIDTH 14 0
BBX 12 17 1 2
BITMAP
000900
000900
000900
000900
000900
000900
000900
001D55
7FFF94
000900
000A00
000A00
000600
000700
000300
000300
000100
ENDCHAR
STARTCHAR comma
ENCODING 44
SWIDTH 251 0
DWIDTH 8 0
BBX 6 11 1 -6
BITMAP
2F40
7FC0
7FD0
3FD0
1FD0
0BC0
0380
0340
0600
0C00
2400
ENDCHAR
STARTCHAR hyphen
ENCODING 45
SWIDTH 436 0
DWIDTH 14 0
BBX 10 2 2 6
BITMAP
500050
AFFFE0
ENDCHAR
STARTCHAR period
ENCODING 46
SWIDTH 238 0
DWIDTH 8 0
BBX 5 5 1 -1
BITMAP
1F40
7FC0
7FC0
7F80
2F40
ENDCHAR
STARTCHAR slash
ENCODING 47
SWIDTH 690 0
DWIDTH 22 0
BBX 22 30 0 0
BITMAP
000000000010
000000000090
0000000001C0
000000000740
000000000E00
000000002C00
000000007400
00000000E000
000000028000
0000000B4000
0000001D0000
000000380000
000000B00000
000001D00000
000007800000
00000E000000
00002C000000
000074000000
0000E0000000
0002C0000000
000740000000
001D00000000
003800000000
00B000000000
01D000000000
038000000000
0A0000000000
1C0000000000
340000000000
A00000000000
ENDCHAR
STARTCHAR zero
ENCODING 48
SWIDTH 723 0
DWIDTH 23 0
BBX 23 23 0 2
BITMAP
0001AFE90000
001F901BD000
00B80001F800
02F000007E00
0BD000002F80
1F8000001FD0
2F4000000FE0
3F4000000BF0
7F00000007F4
BF00000007F8
BF00000003F8
BF00000003F8
BF00000003F8
7F40000003F8
7F40000003F8
3F80000007F4
2FC0000007F0
0FD000000BD0
07F000000F80
02F800002F00
007E0000BC00
001BE406E000
0001AFF90000
ENDCHAR
STARTCHAR one
ENCODING 49
SWIDTH 505 0
DWIDTH 16 0
BBX 16 29 0 -2
BITMAP
00014000
00034000
00078000
000B8000
001FC000
007FC000
00FFD000
07BFD000
290FE000
900BE000
0007F000
0003F000
0003F400
0002F400
0002F800
0002F800
0001FC00
0001FC00
0001FD00
0001FD00
0000FE00
0000FF00
0000FF40
0000FF80
0001FFE0
0002FFFE
001BE500
00B90000
07800000
ENDCHAR
STARTCHAR two
ENCODING 50
SWIDTH 534 0
DWIDTH 17 0
BBX 17 29 0 -3
BITMAP
006FE80000
02FFFF4000
0BFFFFD000
1E41BFF000
38002FF400
74000FF800
60000BF800
90000BF800
80000BF400
80000BF000
80000BE000
00000FD000
00001F8000
00003F0000
0000BC0000
0001F40000
0003D00000
000F400000
003D000000
01E0000000
0740000000
2F40000000
1FE4000080
01FE400140
001FF90700
0002FFFD00
00007FF800
00000BF000
000001D000
ENDCHAR
STARTCHAR three
ENCODING 51
SWIDTH 511 0
DWIDTH 16 0
BBX 17 26 0 -2
BITMAP
1A50000000
2FFFEA9000
1FFFFFC000
1F90078000
1D000A0000
18001C0000
1400340000
1000900000
0002800000
0007000000
0007E40000
0000BF4000
00001FE000
000007F800
000002FD00
400000FE00
800000BF00
C000007F40
900000BF40
B00000BF40
780000FF00
2E0002FE00
1F901BFD00
07FFFFF400
01FFFFD000
001BFA0000
ENDCHAR
STARTCHAR four
ENCODING 52
SWIDTH 712 0
DWIDTH 23 0
BBX 23 31 0 -4
BITMAP
000000200000
000000A00000
000001E00000
000007D00000
00000FD00000
00002FD00000
00009BD00000
000247E00000
000907E00000
002803F00000
00A003F40000
028002F40000
0B0002F80000
2D0001FC0000
BE0001FC0000
7FE000FD0000
06FE40FE0000
001FF8BF0010
0001BFFF4090
00000BFFFA80
000000BFFF40
0000003FFE00
0000003F9900
0000002FC000
0000002FD000
0000001FD000
0000001FE000
0000002FF400
000006AFFC00
000000001B40
000000000064
ENDCHAR
STARTCHAR five
ENCODING 53
SWIDTH 757 0
DWIDTH 24 0
BBX 24 31 0 -3
BITMAP
000000000001
000000780003
000000FF400A
000001FFF41D
0000036FFFFC
00000607FFF8
00000800BFF0
000014001FE0
0000200002C0
000050000000
000080000000
0002FE900000
0002FFFD0000
00001BFF8000
000000BFE000
0000001FF800
1400000BFC00
30000003FD00
60000002FE00
90000002FE00
90000002FE00
90000002FD00
90000002FD00
90000003FC00
A0000007F800
7000000BF000
3800001FE000
1E00007F8000
07E406FE0000
01FFFFF40000
001BFE400000
ENDCHAR
STARTCHAR six
ENCODING 54
SWIDTH 598 0
DWIDTH 19 0
BBX 19 25 0 0
BITMAP
0001BFE400
001F901A00
00BE0002D0
02F80000B0
07F0000024
0FE0000018
1FD0000000
2FC1BFA000
3FCA41BE00
7FF8001F80
7FF00007D0
7FD00003F0
BFC00002F4
BFC00001F8
7F800001F8
7F800001F8
3F800000F8
3F800001F8
2FC00001F4
0FD00002F0
0BE00002E0
02F40007C0
00BC000F40
002F907D00
0001BF9000
ENDCHAR
STARTCHAR seven
ENCODING 55
SWIDTH 507 0
DWIDTH 16 0
BBX 16 27 0 -2
BITMAP
00000001
5500016F
FFFFFFFD
BFFFFFF8
BC05BFF0
740006E0
700001C0
60000280
60000300
10000A00
10001D00
00002C00
00007400
0000B000
0001E000
0002D000
0007C000
000BC000
000F8000
001F8000
003F4000
007F4000
00BF0000
00FF0000
01FF0000
02FE0000
01400000
ENDCHAR
STARTCHAR eight
ENCODING 56
SWIDTH 476 0
DWIDTH 15 0
BBX 15 26 0 -1
BITMAP
006FE400
02FD0600
0BF40280
0FE000C0
1FE000C0
2FE000C0
2FF00180
1FF80340
0FFE0900
0BFFE400
02FFF400
00BFFD00
00BFFF80
02E6FFD0
0F402FF0
2D000BF4
780002F8
B40001FC
B40000BC
B40000BC
B40000B8
B40000B4
3C0000F0
1E0002D0
07D01B40
00AFE400
ENDCHAR
STARTCHAR nine
ENCODING 57
SWIDTH 601 0
DWIDTH 19 0
BBX 19 24 0 0
BITMAP
001BFE4000
01F407F400
0BC001FE00
1F40007F80
3F00002FD0
7F00001FE0
BE00000FF4
BE00000FF4
BE00000FF8
BF00000BF8
7F00000BFC
3F40000FFC
1FC0001FF8
0BE0002FF8
02FD01BFF8
002BFE5FF4
0000001FF0
0000002FE0
0000003FC0
000000BF40
000001FE00
29401BF800
0BFFFFD000
01AFF90000
ENDCHAR
STARTCHAR colon
ENCODING 58
SWIDTH 246 0
DWIDTH 8 0
BBX 6 16 1 -1
BITMAP
1F40
7FC0
7FC0
7FC0
2F40
0000
0000
0000
0000
0000
0000
1B40
2FC0
3FD0
2FC0
1F40
ENDCHAR
STARTCHAR semicolon
ENCODING 59
SWIDTH 266 0
DWIDTH 9 0
BBX 6 20 1 -6
BITMAP
0B80
2FE0
2FF0
2FE0
0B80
0000
0000
0000
0000
0000
0000
1F80
3FD0
3FE0
2FD0
0BC0
0780
0A00
1800
6000
ENDCHAR
STARTCHAR less
ENCODING 60
SWIDTH 522 0
DWIDTH 17 0
BBX 13 15 2 2
BITMAP
00000740
00002D00
0001E000
000B8000
00790000
02D00000
2E000000
F8000000
BE000000
0BD00000
00BD0000
001BD000
0001B900
00001B80
00000140
ENDCHAR
STARTCHAR equal
ENCODING 61
SWIDTH 655 0
DWIDTH 21 0
BBX 19 6 1 6
BITMAP
00156ABFF4
2FFEA55000
1500000000
0000000000
0000000000
7FFFFAAA00
ENDCHAR
STARTCHAR greater
ENCODING 62
SWIDTH 533 0
DWIDTH 17 0
BBX 14 16 1 2
BITMAP
50000000
1D000000
06900000
00B80000
001B4000
0001E400
00002E00
000007D0
000001F0
000002D0
00001E00
0000B800
0006D000
001E0000
00B40000
03800000
ENDCHAR
STARTCHAR question
ENCODING 63
SWIDTH 564 0
DWIDTH 18 0
BBX 17 30 0 -3
BITMAP
001BFE4000
00B40BF400
038001FE00
0B4000BF40
1F00007F80
2F40003FC0
3F80003FC0
7FD0003FC0
7FF4007FC0
7FF800BF80
3FFC01FF40
2FF803FE00
0BE00BF800
00002FD000
0000BF4000
0002F40000
000F800000
003D000000
00B0000000
00D0000000
0180000000
0181000000
01D2000000
007D000000
0000000000
0000000000
002D000000
007F000000
007F000000
002E000000
ENDCHAR
STARTCHAR at
ENCODING 64
SWIDTH 898 0
DWIDTH 29 0
BBX 27 32 1 -9
BITMAP
000006BFE90000
000079401BD000
00029000007800
001D0000000A00
00740000000340
00D000000001C0
02800000000090
07000000BE0060
09001BF8BE0030
0C00B91BBE0034
1803E002FE0024
240BC001FE0024
300F8000FD0024
302F8000BD0024
602F4000BD0024
603F4000BD0034
603F8000BD0030
603F8000FD0070
603FC000FD00A0
702FD001BE01C0
301FE0032F4780
340BF91A0FFE00
2402FFF802F800
18006FD0000000
0C00001B800000
0A00002FE00000
0340002FE00000
02C0000FE00000
00A00003E00000
002D0003C00000
0007901B400000
0000AFE4000000
ENDCHAR
STARTCHAR A
ENCODING 65
SWIDTH 784 0
DWIDTH 25 0
BBX 26 29 0 -3
BITMAP
000000A0000000
000006F0000000
00016FF4000000
001FBFF8000000
00000FFC000000
00001DFD000000
000018FE000000
000024BF000000
0000307F400000
0000603F800000
0000902FC00000
0000C01FD00000
0001800FE00000
0002E40FF00000
00036F9FF40000
000701BFF80000
000A000BFC0000
000D0002FD0000
001C0001FE0000
00280000FF0000
00740000BF4000
00B000007FC000
01E000003FD000
FFF000002FE000
05BD00002FF000
000600001FF800
000000001FFE40
000000007FFFD0
00000007950000
ENDCHAR
STARTCHAR B
ENCODING 66
SWIDTH 685 0
DWIDTH 22 0
BBX 22 32 0 -5
BITMAP
00005BFA4000
6AAA407FD000
07FE001FF400
00FF000BF800
007F0007F800
003F0003F800
003F0003F800
003F0007F000
002F400BE000
002F401F8000
002F407D0000
002F46E00000
002FEABE4000
002F8007F400
002F8001FD00
002F8000BF00
002F80003F80
002F80002FC0
002FC0002FD0
002FC0001FD0
002FC0001FD0
002FC0001FD0
002FC0002FD0
002FD0002FC0
002FD0003F80
003FE000BF00
003FF001FD00
00BFF807E000
01FFFFFA4000
0B9000000000
780000000000
900000000000
ENDCHAR
STARTCHAR C
ENCODING 67
SWIDTH 742 0
DWIDTH 24 0
BBX 24 31 0 -3
BITMAP
000000000080
000000000080
0000000000C0
0000000000C0
0000000001C0
00006BFEABC0
000BE401BFD0
007F40001FD0
02FD000003E0
07F8000000F0
0FF000000070
2FE000000014
3FD000000000
7FC000000000
7FC000000000
BFC000000000
BFC000000000
BFC000000000
BFC000000000
BFC000000005
BFD000000005
BFE000000009
7FF000000009
3FF40000000C
1FF800000018
0FFE00000034
07FF400000A0
01FFE00002C0
007FFE406F40
000BFFFFF800
00006BFE9000
ENDCHAR
STARTCHAR D
ENCODING 68
SWIDTH 726 0
DWIDTH 23 0
BBX 23 27 0 -5
BITMAP
14056AFF9000
1BFF901FFD00
02FE0002FF40
00FE0000BFC0
00BE00003FE0
00BE00001FF0
007E00000FF4
007E00000FF8
007E00000BF8
007E00000BF8
007E00000BF8
007E00000BF8
007E00000BF4
007F00000FF4
007F00001FF0
007F00002FD0
007F40003F80
007F8000BE00
007FC001F800
007FF41B9000
00BFFFA40000
00FFE4000000
01FD00000000
03D000000000
0A0000000000
240000000000
900000000000
ENDCHAR
STARTCHAR E
ENCODING 69
SWIDTH 557 0
DWIDTH 18 0
BBX 18 29 0 -3
BITMAP
555556AF00
2FFE500B00
0BFD000700
07FD000300
03FD000200
02FD000200
02FD000000
01FD000000
01FD000000
01FD000000
00FD000000
00FE020000
00FE030000
00BFFF0000
00BE1B0000
00BE030000
007E020000
007F020000
007F000000
007F000000
003F000000
003F000000
003F400010
003F400020
003F400060
002F4000A0
007F8006D0
7FFFFABFD0
000156AB80
ENDCHAR
STARTCHAR F
ENCODING 70
SWIDTH 533 0
DWIDTH 17 0
BBX 18 28 0 -1
BITMAP
00000006E0
000006BFE0
00169407D0
7FFF4002D0
07FF4002C0
01FF4002C0
00FF400280
00BF400240
00BF400200
007F404000
007F814000
007F824000
003F874000
003FFF0000
002F874000
002F824000
002F824000
002F814000
001F810000
001F800000
001F800000
001FC00000
000FC00000
000FC00000
000FC00000
001FC00000
017FE00000
3FEABE0000
ENDCHAR
STARTCHAR G
ENCODING 71
SWIDTH 750 0
DWIDTH 24 0
BBX 24 25 0 -1
BITMAP
000000000001
000000000007
00000000000D
00006FFA4078
000BE405FAF0
007F40002FD0
02FD00000FC0
07F400000B80
0FF000000B00
2FE000000A00
3FD000000900
7FC000000000
BFC000000000
BF8000000058
BF8000016BE0
BFC001FAFFC0
BFC000003FC0
BFC000002FC0
7FD000002FC0
3FE000002FC0
1FF000002FC0
0BF800003FD0
02FE0000A5D0
007FD0164000
0006FFA40000
ENDCHAR
STARTCHAR H
ENCODING 72
SWIDTH 743 0
DWIDTH 24 0
BBX 24 33 0 -4
BITMAP
100000000000
1E5000000000
02FFFF800000
00FF80000000
00BF00000019
00BF00005AE0
00BF003FFFC0
00BF00007FC0
00BF00003FC0
00BF00003F80
00BF00002F80
00BF00002F80
00BF00002F80
00BF00002F80
00BF00002F80
00BF0005BF80
00BFEFEABF80
00BF90003F80
00BF00002F80
00BF00002F80
00BF00001F80
00BF00001F80
00BF00001F80
00BF00001F80
00BF00001F80
00BF00000F80
00BF00000F80
00BF00001F80
00FF00007FD0
00FF001FFFF9
01FF40054004
6FFFD0000000
A40160000000
ENDCHAR
STARTCHAR I
ENCODING 73
SWIDTH 438 0
DWIDTH 14 0
BBX 18 33 -2 -6
BITMAP
1A9556AFE0
05BFFFD000
001FFF0000
000FFD0000
000BFC0000
000BFC0000
000BF80000
0007F80000
0007F40000
0007F40000
0007F00000
0007F00000
0007F00000
0007F00000
0007E00000
0007E00000
0007E00000
0007E00000
0007D00000
0007D00000
0007D00000
0007D00000
0007D00000
0007C00000
0007C00000
000BC00000
000BC00000
000BC00000
000BD00000
000FE40000
007FFFC000
06E5000000
7900000000
ENDCHAR
STARTCHAR J
ENCODING 74
SWIDTH 628 0
DWIDTH 20 0
BBX 22 38 0 -8
BITMAP
000000000050
000000005B80
0000016BF400
0002FFFFD000
00000BFF8000
000002FF4000
000001FF4000
000000FF4000
000000BF4000
000000BF4000
000000BF4000
0000007F4000
0000007F4000
0000007F4000
0000007F4000
0000007F0000
0000007F0000
0000007F0000
0000007F0000
0000007F0000
0000007E0000
0000007E0000
0000007E0000
0000007D0000
000000BD0000
000000BC0000
000000BC0000
000000F80000
000001F40000
0BE402F00000
3FFC02E00000
BFFD03C00000
BFFD0B800000
BFFC0F000000
B4502D000000
7000B8000000
2906D0000000
06FA00000000
ENDCHAR
STARTCHAR K
ENCODING 75
SWIDTH 866 0
DWIDTH 28 0
BBX 29 29 0 -2
BITMAP
0000140000000000
0016E00400000000
BFFF400B94000000
07FE0003FFFC0000
02FE0002F4000000
01FE000380000000
01FE000A00000000
01FE001800000000
00FE006000000000
00FE01C000000000
00FE038000000000
00FE0FC000000000
00FE2FE000000000
00BE9FF000000000
00BF4BF800000000
00BE07FC00000000
00BE03FE00002400
00BE01FF40000D00
007E00BFC0000700
007E003FF0000340
007F001FFC000340
007F000BFF400740
007F0002FFE41F00
007F00007FFFFE00
007F00001FFFF800
007F400001BF9000
00BF800000000000
03FFD00000000000
0001690000000000
ENDCHAR
STARTCHAR L
ENCODING 76
SWIDTH 660 0
DWIDTH 21 0
BBX 21 24 0 1
BITMAP
7A5000000000
05FFFFF40000
003FFD000000
002FF8000000
002FF4000000
001FF4000000
001FF0000000
001FF0000000
001FF0000000
001FE0000000
001FE0000000
001FE0000000
001FE0000000
001FE0002000
001FD0003000
001FD0002400
001FD0001800
001FD0001C00
001FD0001D00
001FD0001E00
001FD0002F00
002FE401BF40
05BFFFFFFF40
1A9540000000
ENDCHAR
STARTCHAR M
ENCODING 77
SWIDTH 1089 0
DWIDTH 35 0
BBX 36 25 0 -1
BITMAP
000000000000000040
00000000000003FF80
0000000000000BE500
0000000000000F4000
0019400000002F4000
000BFF8000003F4000
0000FFE000007F4000
000077F40000BF4000
000036FD00017F8000
000034FF00022F8000
0000247F80051FC000
0000243FD0080FD000
0000241FF4140FD000
0000240BFC200BE000
00002407FE9007F000
00002402FF8007F400
00003400FF4003F400
00003000BE0003F800
000070003D0002FC00
7D00A000180002FE00
BF41D000000001FF40
FFEBC000000001FFD0
FFFF4000000007FFFE
7FFD00000000BE5000
1FE400000000400000
ENDCHAR
STARTCHAR N
ENCODING 78
SWIDTH 799 0
DWIDTH 26 0
BBX 26 30 0 -7
BITMAP
00140000000000
BFFF4000000590
01FFD000FFFE40
00BFF40007F400
00BFFD0001E000
0073FF4000D000
0071FFD000D000
00707FF400D000
00602FFC00D000
00600BFF00D000
006003FF80C000
006001FFE0C000
006000BFF9C000
0060002FFFC000
0070000FFFC000
00700007FFC000
00700001FFC000
00700000BFC000
007000002FC000
007000000FC000
00700000078000
00700000018000
00700000000000
00700000000000
00700000000000
00B00000000000
00F40000000000
06FC0000000000
BFFF4000000000
0006F000000000
ENDCHAR
STARTCHAR O
ENCODING 79
SWIDTH 747 0
DWIDTH 24 0
BBX 24 24 0 1
BITMAP
0001AFE90000
001F406FE000
00BC0002FD00
02F00000BF40
0BD000003FD0
1FC000002FF0
2F8000000FF4
3F4000000BFC
7F4000000BFD
BF40000007FD
BF00000007FE
BF40000003FE
BF40000003FE
BF40000003FE
BF80000003FD
7F80000003FD
3FC0000003FC
2FD0000007F8
1FE000000BF0
0BF400000FD0
02FC00002F80
00BF40007E00
001FE406E400
0001AFFA4000
ENDCHAR
STARTCHAR P
ENCODING 80
SWIDTH 623 0
DWIDTH 20 0
BBX 20 28 0 -4
BITMAP
00005AFF90
BFFFFD0BF4
01BFF002FD
002FE001FE
001FE000FF
000FD000BF
000FD000FF
000FD000FE
000FD000FD
000FD001FC
000FD003F4
000FD01FD0
000FEFF900
000FD00000
000FD00000
000FD00000
000FD00000
001FD00000
001FD00000
001FD00000
001FE00000
002FE00000
002FE00000
002FF00000
003FF40000
00BFFC0000
02FFFF4000
294005B800
ENDCHAR
STARTCHAR Q
ENCODING 81
SWIDTH 804 0
DWIDTH 26 0
BBX 37 38 0 -14
BITMAP
00006BFE400000000000
0007901BF90000000000
002D0000BF8000000000
01F400001FE000000000
03D000000BF800000000
0BC0000003FD00000000
1F80000001FF00000000
2F40000000FF40000000
3F000000007F80000000
7F000000007FC0000000
BF000000003FD0000000
BF000000002FD0000000
BF000000002FD0000000
BF000000002FD0000000
BF400000002FC0000000
BF800000002FC0000000
7F80000BF83F80000000
7FD000242F7F80000000
3FE000900BFF00000000
1FF400C003FE00000000
0FFC00C002FC00000000
07FE008002F800000000
01FFD1800BFC00000000
007FF9807FFE00000000
000BFFFFF8FF00000000
00006FFE40BF40000000
00000000007F80000000
00000000007FC0000000
00000000003FD0000000
00000000002FE0000040
00000000002FF4000080
00000000001FF8000140
00000000000FFD000340
000000000007FF400A00
000000000003FFD06D00
000000000001FFFFF800
0000000000007FFFE000
00000000000006FE4000
ENDCHAR
STARTCHAR R
ENCODING 82
SWIDTH 869 0
DWIDTH 28 0
BBX 29 23 0 -1
BITMAP
000006FE40000000
0016B41FE0000000
FFFFD007F4000000
07FFC003FC000000
00FF8002FC000000
00BF8002FD000000
007F8002FC000000
003F4003FC000000
003F4007F8000000
002F400BF4000000
002F402FD0000000
002F45FF40000000
001FFFFD00000000
001F81FE00000000
001F80FF40000000
001F80BF80000100
001F803FE0000180
000F802FF4000180
000FC00BFE000280
001FC003FFE40B40
007FE000FFFFFF00
2FFFF4002FFFFD00
00001A0001BFE000
ENDCHAR
STARTCHAR S
ENCODING 83
SWIDTH 517 0
DWIDTH 17 0
BBX 18 31 -1 -4
BITMAP
0000000040
0000000080
00006F9080
0007E06F80
000F800B40
002F400340
003F400240
003F400200
003F800100
003FD00000
002FF00000
000FF80000
000BFE0000
0003FF8000
0001FFD000
00007FF400
00002FFC00
00000BFE00
000003FF40
000001FF80
500000BFC0
3000007FD0
2400003FE0
2800002FE0
1D00001FE0
0E00001FE0
0F40001FD0
0FD0001F80
0FF4003F40
0E6E41FD00
1401BF9000
ENDCHAR
STARTCHAR T
ENCODING 84
SWIDTH 659 0
DWIDTH 21 0
BBX 22 32 0 -4
BITMAP
7E9500005AE0
7FFFFFFFFFF0
7F4002F017F0
3D0002F001F0
3C0002F000A0
2C0002F000A0
2C0002F00090
1C0003F00040
0D0003F00000
090003F00000
060003F00000
020003F00000
000003F00000
000003F00000
000007F00000
000007F00000
000007F00000
000007F00000
000007F00000
000007F00000
00000BF00000
00000BF00000
00000BF00000
00000BF00000
00000BF40000
00000FF40000
00001FFC0000
00002FFE4000
00007FFFFE00
0001F9400000
000780000000
002800000000
ENDCHAR
STARTCHAR U
ENCODING 85
SWIDTH 690 0
DWIDTH 22 0
BBX 24 23 0 1
BITMAP
000006D00000
0001BE000000
05AFF4000000
FFFFE0000000
07FFD07EAAA5
02FFC005FF40
01FF80002F00
00FF80001E00
00FF40000E00
00FF40000A00
00FF40000A00
00FF40000A00
00FF40000900
00BF80000900
00BF80000900
00BFC0000900
007FC0000C00
003FD0001800
001FE0002400
000FF4007000
0007FE02D000
0001FFFF4000
00001BF90000
ENDCHAR
STARTCHAR V
ENCODING 86
SWIDTH 798 0
DWIDTH 26 0
BBX 28 25 0 0
BITMAP
00000150000000
00016E00000000
BFFFF400000001
01BFF40000000A
001FF800000028
0007FC000001E0
0002FD00016FC0
0001FE007FFF00
0000BF40007D00
00007F80007800
00002FD0007400
00001FE000A000
00000FF400D000
000007F8018000
000003FD024000
000002FF030000
000001FF860000
000000BFDC0000
0000007FF80000
0000003FF40000
0000002FE00000
0000000FD00000
0000000BC00000
00000007800000
00000002000000
ENDCHAR
STARTCHAR W
ENCODING 87
SWIDTH 1120 0
DWIDTH 36 0
BBX 41 28 -1 -3
BITMAP
0000000000000014000000
000000000000001B950000
0000000000000001BFFF80
00000000000000002F9000
00000000000000002E0000
00002400000000003C0000
0000A00000000000740000
0007C00000000000B00000
007F800000000000D00000
5BFF800000000001C00000
A5FFC00008000002800000
003FD0002E000003000000
001FE0007F400006000000
000FF000BFC0000D000000
000BF4019FE0001C000000
0007F8030BF40024000000
0003FD0607F80070000000
0002FE0C03FD00A0000000
0001FF6801FF40C0000000
0000FFF000FF8280000000
0000BFE000BFE700000000
00007FC0003FFE00000000
00003F80002FFD00000000
00002F00001FF800000000
00000D00000BF400000000
000004000007E000000000
000000000002D000000000
0000000000018000000000
ENDCHAR
STARTCHAR X
ENCODING 88
SWIDTH 868 0
DWIDTH 28 0
BBX 28 26 0 -1
BITMAP
00000014000000
00015BF4000000
BFFFFFC0010000
017FFFC0019000
0007FFC0003E90
0000FFD0002900
00003FF0003000
00001FF4005000
00000BFC008000
000002FE020000
000001FF460000
000000BFDC0000
0000003FF80000
0000002FF80000
0000003FFC0000
000000B3FD0000
000001C1FF0000
00000340BF4000
00000A003FC000
00001C001FE000
000074000BF400
0001F00003FC00
005BE00001FE00
2FFFE00001FF80
0016F802FFFFF9
00001D00000056
ENDCHAR
STARTCHAR Y
ENCODING 89
SWIDTH 796 0
DWIDTH 26 0
BBX 29 32 0 -4
BITMAP
0000190000000000
0016E40000000000
7FFF800001E90000
07FF4000002FFF40
00BFC000001D0000
002FE00000340000
000BF80000900000
0003FD0001800000
0000FF4006000000
00007FD00D000000
00002FF434000000
00000BFEE0000000
000007FFC0000000
000002FF80000000
000000FF40000000
0000007F00000000
0000007F00000000
0000003F00000000
0000003F00000000
0000003F00000000
0000007F00000000
0000007F40000000
0000007F40000000
0000007F40000000
0000007F40000000
000000BF40000000
000000BF80000000
000000FF80000000
000007FFC0000000
0001FFFFE0000000
00000006B8000000
0000000004000000
ENDCHAR
STARTCHAR Z
ENCODING 90
SWIDTH 627 0
DWIDTH 20 0
BBX 20 28 1 -4
BITMAP
1000000000
3E4005A400
3FFFFFF000
3E40BFE000
3800BFD000
7000FFC000
6001FF8000
5002FF4000
5002FE0000
5003FD0000
0007FC0000
000BF80000
000FF40000
000FF00000
001FE00000
002FD00050
003F800060
007F400020
00BF000030
00BE000034
00FD000078
01FC0000BC
02F80001FD
03F40007FD
07F005BFFE
0BFAA94005
0FE5000000
0400000000
ENDCHAR
STARTCHAR bracketleft
ENCODING 91
SWIDTH 344 0
DWIDTH 11 0
BBX 10 32 0 -6
BITMAP
02FA90
03F410
07E000
0BD000
0BD000
0BC000
0FC000
0FC000
1F8000
1F8000
1F8000
2F8000
2F8000
2F4000
3F4000
3F4000
3F4000
3F4000
7F4000
7F4000
7F4000
7F4000
7F4000
BF4000
BF4000
BF4000
BF4000
BF4000
BF4000
BF8000
7FD000
1AFFE0
ENDCHAR
STARTCHAR backslash
ENCODING 92
SWIDTH 347 0
DWIDTH 11 0
BBX 11 34 0 -4
BITMAP
900000
600000
300000
340000
280000
1C0000
0D0000
090000
060000
070000
034000
028000
01C000
00C000
00D000
00A000
007000
003400
002800
001C00
001D00
000D00
000A00
000700
000340
000280
0001C0
0001D0
0000E0
0000A0
000070
000034
000028
000018
ENDCHAR
STARTCHAR bracketright
ENCODING 93
SWIDTH 334 0
DWIDTH 11 0
BBX 11 29 0 -7
BITMAP
001600
1AFF40
143F80
003F80
002F80
002F80
002FC0
002FC0
002FC0
002FD0
002FD0
001FD0
001FE0
001FE0
001FE0
001FE0
001FF0
001FF0
001FF0
001FF0
001FF4
001FF4
001FF4
001FF4
002FF4
007F90
01F800
0B4000
780000
ENDCHAR
STARTCHAR asciicircum
ENCODING 94
SWIDTH 658 0
DWIDTH 21 0
BBX 19 8 1 17
BITMAP
0000900000
0002F40000
000BFC0000
002FFF0000
01FEBFD000
0BE00BF800
790000BF40
00000006F4
ENDCHAR
STARTCHAR underscore
ENCODING 95
SWIDTH 678 0
DWIDTH 22 0
BBX 19 2 1 -10
BITMAP
055AAAFFF8
6AA9550000
ENDCHAR
STARTCHAR grave
ENCODING 96
SWIDTH 278 0
DWIDTH 9 0
BBX 7 7 1 24
BITMAP
7800
7E00
2F40
0FC0
03D0
00F0
0024
ENDCHAR
STARTCHAR a
ENCODING 97
SWIDTH 527 0
DWIDTH 17 0
BBX 18 24 0 -4
BITMAP
006F900000
0281F80000
07007D0000
0A003F0000
0F402F4000
0FE02F8000
0BF42F8000
07F81FC000
02F01FC000
00001FD000
00000FD000
01AFEFE000
0BD01FE000
2F000BF000
3E000BF000
7E000BF400
7E000BF400
7F807FF800
3FFFF7F820
2FFFC3FC20
06F902FD30
000001FFE0
000000BFD0
0000002F40
ENDCHAR
STARTCHAR b
ENCODING 98
SWIDTH 582 0
DWIDTH 19 0
BBX 21 37 -3 -1
BITMAP
000200000000
000700000000
000B00000000
002F00000000
06FF00000000
7FFF00000000
00BF00000000
003F00000000
002F00000000
002F00000000
002F40000000
002F40000000
002F40000000
001F40000000
001F40000000
001F40000000
001F40000000
001F80000000
001F80000000
001F80000000
001F80000000
000F80AF9000
000FC7FFFD00
000FED06FF00
000FE000BF80
000FC0007FC0
000FD0003FC0
000FD0002FC0
000FD0002FC0
000FE0002FC0
000FE0003F80
000FF0003F40
000FF400BE00
000FFD06F800
001FFFFF9000
007E95000000
039000000000
ENDCHAR
STARTCHAR c
ENCODING 99
SWIDTH 437 0
DWIDTH 14 0
BBX 14 18 0 2
BITMAP
001BF800
0091FF00
0340FF80
0A00BF80
1D00BF80
2D002E00
3C000000
7C000000
7C000240
7D0001C0
7D0000D0
7E000090
3F000090
2F4000D0
1FD001C0
0BF80B40
02FFFE00
006FE400
ENDCHAR
STARTCHAR d
ENCODING 100
SWIDTH 523 0
DWIDTH 17 0
BBX 18 30 0 1
BITMAP
0000002400
000001F400
00001FF400
0001EBF400
000007F400
000003F400
000003F400
000003F400
000003F400
000003F400
000003F400
000003F400
000003F400
000003F400
000003F400
000002F400
000002F400
000002F000
00AFEBF000
07F407F000
1FD002F000
3F8002F000
7F4002F000
BF4002F000
BF4002F000
7F4002F000
3F8002F000
2FD003F400
0BF40BF900
01BFFAAA90
ENDCHAR
STARTCHAR e
ENCODING 101
SWIDTH 434 0
DWIDTH 14 0
BBX 14 17 0 1
BITMAP
001BF800
00B82F40
07E00BC0
0FC00BD0
1F8007D0
3F400BD0
7F400FC0
7F402F40
7F40BD00
7FBFA080
7F4000C0
7F800090
3F800090
1FD000C0
0BF00180
02FD0700
006FE800
ENDCHAR
STARTCHAR f
ENCODING 102
SWIDTH 299 0
DWIDTH 10 0
BBX 17 41 -2 -5
BITMAP
000007F800
0000281F00
0000A00780
0001C007C0
0002800BC0
0003406FC0
000742FFC0
000B07FF80
000B07FF00
000F01F800
000F000000
001F000000
001F000000
002F815000
007FFA4000
6BFF800000
103F400000
003F400000
003F400000
002F400000
002F400000
002F400000
002F400000
002F400000
002F400000
002F400000
002F800000
002F800000
002F800000
002F800000
002F800000
002F800000
002F800000
002F800000
002F800000
002FC00000
002FC00000
003FE40000
007FFF8000
01E4000000
0900000000
ENDCHAR
STARTCHAR g
ENCODING 103
SWIDTH 567 0
DWIDTH 18 0
BBX 20 31 -1 -12
BITMAP
0000000BF4
00000021FD
00000080FF
001BFAC0FF
00BF47E0FE
02FC01F87D
07F800FD00
0BF400BE00
0BF400BE00
0BF400BE00
0BF400BD00
07F800FC00
02FC02F800
00BE07E000
001FFE4000
00B9000000
00F0000000
00B9000000
001BFA5000
006D16FD00
02F4002F80
0BE0000FE0
1FC00007F0
3F800003F0
7F800003F0
7F800003F0
7FC00003D0
3FD0000B80
1FF0001E00
07FD01B400
006FFA4000
ENDCHAR
STARTCHAR h
ENCODING 104
SWIDTH 566 0
DWIDTH 18 0
BBX 19 34 -1 0
BITMAP
0002400000
000B400000
006F400000
06FF000000
7AFF000000
003E000000
003E000000
002E000000
002E000000
003D000000
003D000000
003D000000
003D000000
003D000000
003D000000
007C000000
007C000000
007C000000
007C1BE000
00BCBFFC00
00BDD1FE00
00BF40BF00
00BF007F40
00FE003F40
00FD003F40
00FC003F40
00FC003F40
01F8003F40
01F8003F40
02F8003F40
02F8007F40
0BF8007F80
FFFD01FABC
001B854000
ENDCHAR
STARTCHAR i
ENCODING 105
SWIDTH 301 0
DWIDTH 10 0
BBX 9 23 0 3
BITMAP
01F400
02FC00
03FC00
01F400
000000
000900
01BD00
7FFC00
07FC00
03FC00
03F800
02F800
02F800
02F400
02F400
02F400
02F400
03F400
03F000
03F000
03F400
0BF900
7EBFC0
ENDCHAR
STARTCHAR j
ENCODING 106
SWIDTH 367 0
DWIDTH 12 0
BBX 15 37 -4 -16
BITMAP
00002E00
00003F40
00007F40
00002E00
00000000
00000000
00100590
001BFFE0
0000BFF0
00002FF4
00000FF4
00000BF4
000007F8
000003F8
000002F8
000002FC
000001FC
000001FC
000000FC
000000FC
000000FC
000000BC
000000BC
000000BC
000000BC
000000B8
06F400B8
1FFC00F4
3FFD00F4
7FFC00F0
BF9001E0
B80002D0
74000380
74000B40
28001D00
0A41B400
01BF8000
ENDCHAR
STARTCHAR k
ENCODING 107
SWIDTH 567 0
DWIDTH 18 0
BBX 20 36 -2 -4
BITMAP
0006000000
000F000000
007F000000
1BFE000000
FFFE000000
00BE000000
003F000000
002F000000
002F000000
002F000000
002F000000
002F000000
002F000000
002F000000
002F040000
002F079400
002F00BFE0
002F407900
002F40D000
001F424000
001F4A0000
001F6E0000
001FFE0000
001FAF0000
001F9F4024
001F8F8008
001F8BD006
001F87E006
001FC2F406
001FC1FE0A
001FC07FFD
001FC00BE4
001FD00000
002FE00000
003FF40000
16FEBFE000
ENDCHAR
STARTCHAR l
ENCODING 108
SWIDTH 354 0
DWIDTH 11 0
BBX 13 30 -2 0
BITMAP
00008000
0001C000
0007C000
001FC000
007FC000
02FFC000
1FFFC000
643FC000
002FC000
002FC000
001FC000
001FC000
001FD000
000FD000
000FD000
000FD000
000BD000
000BD000
000BE000
000BE000
0007E000
0007E000
0007E000
0003F000
0003F000
0003F000
0003F400
0007FD00
00FFFFC0
00500040
ENDCHAR
STARTCHAR m
ENCODING 109
SWIDTH 708 0
DWIDTH 23 0
BBX 21 15 1 3
BITMAP
004000000000
06D000000000
AFD1F80BE400
5FDBFF2FFC00
0BE87FD1FD00
07F02F80BE00
07E01F40BE00
03E01F40BE00
03E02F40BD00
03E03F40FD00
03E1FFD1FD00
07F00157FD00
7FF90001BE00
000500000B40
000000000180
ENDCHAR
STARTCHAR n
ENCODING 110
SWIDTH 584 0
DWIDTH 19 0
BBX 19 21 0 -1
BITMAP
0060000000
00F0000000
03F006F800
2FF42FFF00
53F4A0BF80
02F8802FC0
01FA401FD0
01FA001FD0
00FE000FD0
00BE000FD0
00BD000FC0
007D000FC0
007D000FC0
003D000F80
003D001F80
002E001F80
002E002F40
003F4BFF80
07FFD05BC0
00005001A0
0000000014
ENDCHAR
STARTCHAR o
ENCODING 111
SWIDTH 503 0
DWIDTH 16 0
BBX 16 15 0 2
BITMAP
002BF900
02F81F80
0BE007E0
1FC002F4
2FC001FC
3F8000FD
7F8000FD
7F8000BD
7FC000BD
3FC000BD
2FD000FC
1FE000F4
0BF402E0
01FD0780
002BF900
ENDCHAR
STARTCHAR p
ENCODING 112
SWIDTH 509 0
DWIDTH 16 0
BBX 16 30 0 -14
BITMAP
00080000
00380000
00F86F90
0BF9FFF8
2AFF46FD
01FD00FE
00FC00BE
00F800BE
00F800BE
00F800BE
00F800BD
00F800FC
00FC01F4
00FE07D0
00FDBE40
00FC0000
01FC0000
01FC0000
01FC0000
01FC0000
01FC0000
01FC0000
01FC0000
01FC0000
01FD0000
02FD0000
02FD0000
07FF0000
6FFFD000
0005A400
ENDCHAR
STARTCHAR q
ENCODING 113
SWIDTH 505 0
DWIDTH 16 0
BBX 16 29 0 -13
BITMAP
01BF8BF4
0BE46FD0
2F800FC0
3F400BC0
7F000BC0
7F000BC0
7F400BC0
7F400FC0
2FC00FC0
0FE42FC0
02FE4FC0
00000FC0
00000FC0
00000FC0
00000FC0
00000FC0
00000FC0
00000FC0
00000FC0
00000FC0
00000FC0
00000FC0
00001FC0
00001FC0
00001FC0
00002FC0
001FFFD0
000016F8
0000001B
ENDCHAR
STARTCHAR r
ENCODING 114
SWIDTH 414 0
DWIDTH 13 0
BBX 15 22 0 0
BITMAP
00001BE0
00006478
0020803C
00B141BC
06F207FC
7FF607F8
03FD02E0
02FD0000
02FD0000
01FD0000
01FD0000
01FD0000
00FD0000
00FD0000
00FE0000
00FE0000
00FE0000
00BF0000
00BF0000
00BF8000
02FFFC00
2E540000
ENDCHAR
STARTCHAR s
ENCODING 115
SWIDTH 482 0
DWIDTH 15 0
BBX 17 24 -1 -3
BITMAP
0000000800
0001BFA800
000B91B400
001F007400
002E003000
003F003000
002F802000
001FD00000
000FF40000
0007FD0000
0001FF4000
00007FD000
00002FF400
00000BFC00
001402FE00
003400FF00
007000BF40
00E0007F40
02D0003F40
0BD0003F40
2EE0007F00
607400FD00
001D06F400
0002BF8000
ENDCHAR
STARTCHAR t
ENCODING 116
SWIDTH 434 0
DWIDTH 14 0
BBX 14 25 0 -1
BITMAP
0000D000
0001D000
0002D000
0003C000
00078000
000F8000
002F8000
01BFFE00
6FFF9000
01FE0000
01FD0000
02FC0000
03F80000
03F40000
07F40000
07F00000
0BF00000
0BF00000
0BF007C0
0BF00BD0
07F003E0
03F401D0
01FC01C0
00BE4640
001BF800
ENDCHAR
STARTCHAR u
ENCODING 117
SWIDTH 744 0
DWIDTH 24 0
BBX 24 17 0 1
BITMAP
000800002400
002C0006F800
00BC01FFF800
07FD0002F800
7AFD0001F800
00BE0000F800
007E0000FC00
007F0000FC00
007F0001FC00
003F4001BD00
003F80027D00
002FC0023E00
001FE0063FEE
000FF81C2A50
000BFFF80000
0002FFF00000
0000BF800000
ENDCHAR
STARTCHAR v
ENCODING 118
SWIDTH 600 0
DWIDTH 19 0
BBX 19 20 0 -1
BITMAP
0002800000
002F000000
06FE000000
6BFF000000
01FF000000
00BF40BFF8
007F800B40
002FC00700
001FD00A00
000FE00900
0007F40C00
0003F81800
0002FC2400
0000FD3000
0000BE6000
00007FD000
00002FC000
00001F8000
00000B4000
0000020000
ENDCHAR
STARTCHAR w
ENCODING 119
SWIDTH 745 0
DWIDTH 24 0
BBX 24 17 0 -1
BITMAP
00024000006A
002D00001AE4
06FC002002C0
BFFD00740280
03FD00FC0340
02FE01FE0300
01FF02FF0600
00FF427F8900
00BF453FCC00
007F881FFC00
003FD80BF800
002FF407F400
001FF002E000
000FE0009000
000BD0000000
000380000000
000240000000
ENDCHAR
STARTCHAR x
ENCODING 120
SWIDTH 548 0
DWIDTH 18 0
BBX 18 19 0 1
BITMAP
0000680000
005BD00000
FFFF400000
07FF414000
00FF81FFA0
007FC07800
002FD09000
001FE18000
000BF60000
0007FD0000
0002FC0000
0001FD0000
0000FE0000
0002FF0000
00063F4000
001C1FC000
01B40FE400
1E981FFF80
0001E50000
ENDCHAR
STARTCHAR y
ENCODING 121
SWIDTH 659 0
DWIDTH 21 0
BBX 21 32 0 -14
BITMAP
000090000000
000780000000
007D00000540
1BF800FFFF40
7FF8001FFD00
07F80003FC00
07F80003FC00
03F80002FC00
03F80002FC00
02FC0002F800
01FC0003F800
00FD0003F800
00FE0007F800
00BF000BF400
003F801AF400
001FE476F000
000BFFD2F000
0001BE42E000
00000002E000
00000003D000
00000003C000
000000038000
000000074000
001F800B4000
007FE00B0000
008FF00D0000
014BF02C0000
0142D0340000
018000A00000
00C002C00000
00741A000000
001BE4000000
ENDCHAR
STARTCHAR z
ENCODING 122
SWIDTH 460 0
DWIDTH 15 0
BBX 15 18 0 0
BITMAP
2E540000
3FAAFF80
3D003F40
34007F00
7000FE00
6001FC00
6003F800
500BF000
000FE000
002FC000
007F8000
00FF4004
01FE0008
03FD0018
0BF80028
1FF416F8
3FFFFFF4
29400000
ENDCHAR
STARTCHAR braceleft
ENCODING 123
SWIDTH 460 0
DWIDTH 15 0
BBX 15 41 0 -10
BITMAP
00007F80
0002D060
00078000
000F8000
000F8000
001F8000
001F8000
001FC000
001FD000
000FD000
000FE000
000FF000
000BF000
000BF000
000BF000
000FE000
002FD000
007F4000
06FD0000
7F900000
1B800000
01F40000
007D0000
001F0000
000F8000
000FC000
000FC000
000FD000
000FD000
000FD000
000FD000
000FD000
000FD000
001FD000
001FD000
001FE014
000FE014
000FF024
000BF870
0003FFE0
0000BF80
ENDCHAR
STARTCHAR bar
ENCODING 124
SWIDTH 368 0
DWIDTH 12 0
BBX 2 34 5 -6
BITMAP
80
C0
C0
C0
C0
C0
C0
C0
C0
C0
C0
C0
D0
D0
90
90
90
90
90
90
90
A0
60
60
60
60
60
60
60
70
30
30
30
20
ENDCHAR
STARTCHAR braceright
ENCODING 125
SWIDTH 476 0
DWIDTH 15 0
BBX 15 34 0 -8
BITMAP
06FE0000
2FFFD000
742FF000
900FF400
000BF800
000BF800
000BF800
0007F800
0007F800
0003F800
0003F800
0001F800
0000BD00
00001FF8
000001D0
00000380
00000B80
00000F80
00000FC0
00000FC0
00000FD0
00000BE0
000007F0
000003F4
000003F4
000002F8
000002F8
000001F4
000001F4
000001F0
000002D0
00000780
00006E00
000BA000
ENDCHAR
STARTCHAR asciitilde
ENCODING 126
SWIDTH 733 0
DWIDTH 23 0
BBX 21 6 1 5
BITMAP
000000000180
00BF90000780
07FFFE506F00
0D06FFFFFD00
24002FFFF400
500001BF9000
ENDCHAR
STARTCHAR nonbreakingspace
ENCODING 160
SWIDTH 270 0
DWIDTH 9 0
BBX 1 1 0 0
BITMAP
00
ENDCHAR
STARTCHAR exclamdown
ENCODING 161
SWIDTH 247 0
DWIDTH 8 0
BBX 6 34 1 -4
BITMAP
2E40
7F80
7F80
2E00
0000
0000
0000
0000
0500
0A00
0A00
0B00
0F00
0F00
0F40
0F40
0F40
0F80
0F80
1F80
1F80
1FC0
2FC0
2FC0
2FC0
3FC0
3FD0
3FD0
3FD0
7FD0
7FD0
3FC0
3F80
1F40
ENDCHAR
STARTCHAR cent
ENCODING 162
SWIDTH 799 0
DWIDTH 26 0
BBX 15 29 5 -7
BITMAP
00100000
00200000
00200000
00240000
001BF900
00BD07C0
02E801F0
0BC800F4
1F8501F8
2F4602FC
3F0207FC
7F0207F8
BE0242E0
BE014000
BF008000
BF00C000
BF409000
7F805008
3FC0600C
1FE03024
0BFD35E0
01FFFF80
001BFD00
00000C00
00000900
00000600
00000300
00000240
00000140
ENDCHAR
STARTCHAR sterling
ENCODING 163
SWIDTH 799 0
DWIDTH 26 0
BBX 18 30 4 -4
BITMAP
0001BF8000
000F41F400
003C00BC00
00B400BD00
01F401FE00
02F403FE00
03F40BFE00
03F40BFD00
07F80BFC00
07F802E000
03FC000000
03FE000000
02FF014000
01FFA90000
06FFC00000
79BFD00000
003FE00000
002FF00000
001FF40000
000BF80000
0007F80000
0003F80000
0002F80090
0002F40020
06FFF00020
1907F40020
3003FF9070
30074BFFD0
281D01BF40
0BE0000000
ENDCHAR
STARTCHAR currency
ENCODING 164
SWIDTH 732 0
DWIDTH 23 0
BBX 20 22 2 1
BITMAP
0000003400
000000B000
800001D000
B41BFFD000
2EE405B400
0F40001D00
1D00000A00
2800000340
3400000340
7000000340
7000000340
7000000700
7400000A00
3800001800
1D00007000
0B9016B800
03FFE91E00
07C00002D0
0B40000074
0F00000019
1D00000000
1400000000
ENDCHAR
STARTCHAR yen
ENCODING 165
SWIDTH 799 0
DWIDTH 26 0
BBX 24 34 1 -4
BITMAP
000001000000
00016E000001
7FFFF4000068
06FFF0001AD0
00BFF007FF00
002FF4002D00
000FF8002800
0007FC003000
0002FE006000
0001FF008000
0000BF808000
00007FD24000
00002FF70000
00001FFE0000
00000FFE0000
000007FD0000
000003FD0000
000003FD0000
001AAFFFFFF8
000002FC0000
000002FC0000
000017FFFE00
000BFFFD0000
000103FC0000
000002F80000
000002F80000
000002F80000
000003FC0000
000003FC0000
000007FD0000
00000BFF4000
00001FFFF800
0001BE540000
000F90000000
ENDCHAR
STARTCHAR brokenbar
ENCODING 166
SWIDTH 341 0
DWIDTH 11 0
BBX 2 37 4 -8
BITMAP
20
30
30
30
30
30
30
30
30
30
30
30
30
20
00
00
00
20
30
30
30
30
30
30
30
30
30
30
30
30
30
30
30
30
70
70
20
ENDCHAR
STARTCHAR section
ENCODING 167
SWIDTH 546 0
DWIDTH 18 0
BBX 15 37 1 -10
BITMAP
000BF900
00790BD0
01E002F0
03D002F4
0BC003F8
0BD007F8
0FD007F8
0FF002E0
0BF80000
07FE0000
03FF8000
01FFF400
07BFFD00
1E0BFF40
3D01FFD0
7D001FF0
7D0003F8
7F0000FC
7F80007C
2FF40038
1FFD0034
07FF8070
01FFF4D0
002FFF40
0006FF00
00007F80
00000FD0
000002E0
000000F0
000000B0
00000070
00000070
00B90060
01FF0090
01FF8180
00BFFE00
002FE400
ENDCHAR
STARTCHAR dieresis
ENCODING 168
SWIDTH 393 0
DWIDTH 13 0
BBX 8 4 3 21
BITMAP
7D00
BE3D
BD7D
787C
ENDCHAR
STARTCHAR copyright
ENCODING 169
SWIDTH 1023 0
DWIDTH 33 0
BBX 30 29 1 -5
BITMAP
000006BFFA400000
0000794016F80000
00078000001B8000
001D00000001E000
0070000010003C00
01C0000060000E00
034001BFE0000740
0A001F41E00002C0
0D003D00600001D0
1C00BC00200000E0
2800F800100000B0
3401F800000000B0
3401F800000000B0
7001F800050000B0
7001FC00050000B0
7000FD00090000B0
7000BF000C0000E0
74003FD0780001E0
34001FFFE00002D0
280001BE400003C0
2C00000000000780
0E00000000000F40
0B40000000002E00
03D000000000B800
01F400000006F000
007E4000002F8000
001FF9001AFE0000
0001FFFFFFE00000
00001AFFE9000000
ENDCHAR
STARTCHAR ordfeminine
ENCODING 170
SWIDTH 558 0
DWIDTH 18 0
BBX 16 16 1 10
BITMAP
02FE0000
1E07C000
3D02E000
7D01F000
7F00F400
7F00F400
2E01F800
01BFF800
07D0F800
1F00B800
2E00B808
3E00FC09
3E01FC09
3F47BE1C
1FFE2FF8
07F80BE0
ENDCHAR
STARTCHAR guillemotleft
ENCODING 171
SWIDTH 608 0
DWIDTH 19 0
BBX 17 28 1 -8
BITMAP
0000000200
0000000200
0000000300
0000090700
00000C0A00
0000280D00
0000741D00
0001E02C00
0007D07800
001F80B400
007F01F000
02FD07E000
1FF81FF000
7FF01FF800
2FF807FC00
0BFD01FD00
02FF00BE00
00BF403F00
002FC01F40
000BE00F80
0003F40780
0000F80380
00007D0280
00002E0180
00000F0040
0000078000
000001C000
0000004000
ENDCHAR
STARTCHAR logicalnot
ENCODING 172
SWIDTH 616 0
DWIDTH 20 0
BBX 17 6 1 8
BITMAP
7FFFEAAFC0
00000002C0
00000001C0
00000002C0
00000002C0
0000000180
ENDCHAR
STARTCHAR uni00AD
ENCODING 173
SWIDTH 436 0
DWIDTH 14 0
BBX 10 2 2 6
BITMAP
500050
AFFFE0
ENDCHAR
STARTCHAR registered
ENCODING 174
SWIDTH 1048 0
DWIDTH 34 0
BBX 31 30 1 -7
BITMAP
000001AFFA400000
00006E5005B90000
0002D00000068000
001E000000006400
0074000000000900
01D2FFFFF8000240
03402FD0BF400080
0B000F802F800050
0D000B801FC00020
1C000B801FC00024
28000B801FC00014
34000B802F400008
74000B807E000008
74000BC6F8000008
70000BFFC0000008
74000BCBD0000008
74000BC7E0020008
74000BC3F4014008
38000BD1FC018018
38000FD0BF424024
2C001FE02FFF0020
1E007FF806F90060
0B07EABE40000080
0780000140000180
02D0000000000600
00B4000000001C00
002E000000007400
0007D00000068000
00007E5005B90000
000005BFFA400000
ENDCHAR
STARTCHAR macron
ENCODING 175
SWIDTH 382 0
DWIDTH 12 0
BBX 9 1 2 25
BITMAP
AFFF40
ENDCHAR
STARTCHAR degree
ENCODING 176
SWIDTH 346 0
DWIDTH 11 0
BBX 9 8 1 23
BITMAP
06F400
1FFE00
391F40
740740
700340
740700
291A00
0BF400
ENDCHAR
STARTCHAR plusminus
ENCODING 177
SWIDTH 580 0
DWIDTH 19 0
BBX 16 12 1 5
BITMAP
00004000
0000D000
0000D000
0000D000
0001D000
1FEAEAAA
00008000
00008000
00008000
00004000
7FFEAA50
7FAAAAA0
ENDCHAR
STARTCHAR twosuperior
ENCODING 178
SWIDTH 365 0
DWIDTH 12 0
BBX 10 17 1 11
BITMAP
01BE00
07FF80
091FD0
100BE0
0007E0
000BE0
000BC0
000F80
002E00
00B800
069000
6D0000
BE0020
1F9590
02FF40
00FD00
003800
ENDCHAR
STARTCHAR threesuperior
ENCODING 179
SWIDTH 371 0
DWIDTH 12 0
BBX 12 17 0 12
BITMAP
000100
1FFF00
1FFE00
181C00
043400
006000
00FF40
001BE0
0002F8
1000FC
5000FD
5000FD
6000FC
3401F8
2D07F4
0BFFD0
02FE40
ENDCHAR
STARTCHAR acute
ENCODING 180
SWIDTH 234 0
DWIDTH 8 0
BBX 5 6 1 24
BITMAP
0280
0780
0F00
2D00
3800
6000
ENDCHAR
STARTCHAR mu
ENCODING 181
SWIDTH 634 0
DWIDTH 20 0
BBX 20 27 1 -11
BITMAP
BD00005000
BD000BE000
BC000FE000
BC000BE000
BC0007E000
BD0003F000
BD0003F000
BE0003F020
BE0003F418
BF0003F40C
7F8007F809
7ED009FC09
7E7418BE1C
7E1BE03FF8
7E00000BE0
7E00000000
7F00000000
7F00000000
7F00000000
3F40000000
3F40000000
3F40000000
3F80000000
3F80000000
3FC0000000
3F80000000
1000000000
ENDCHAR
STARTCHAR paragraph
ENCODING 182
SWIDTH 707 0
DWIDTH 23 0
BBX 23 39 0 -12
BITMAP
000000000050
000000000680
00000006BD00
0016ABFFF800
01FFF807F000
0BFFF403E000
2FFFF003D000
7FFFF003D000
BFFFF003D000
FFFFF003C000
FFFFF007C000
FFFFF007C000
BFFFF007C000
7FFFF007C000
2FFFF007C000
07FFF007C000
00BFF007C000
000BF007C000
0003F007C000
0003F007C000
0002F007C000
0002F007D000
0002F007D000
0002F007D000
0002F407D000
0001F407E000
0001F407E000
0001F40BE000
0001F40BF000
0001F807F400
0001F807F800
0001F807FE40
0001F807FAF4
0001F8000000
0002F8000000
0003F8000000
000BF8000000
007940000000
0A4000000000
ENDCHAR
STARTCHAR periodcentered
ENCODING 183
SWIDTH 238 0
DWIDTH 8 0
BBX 5 5 1 10
BITMAP
1F40
7FC0
7FC0
7F80
2F40
ENDCHAR
STARTCHAR cedilla
ENCODING 184
SWIDTH 332 0
DWIDTH 11 0
BBX 8 11 1 -8
BITMAP
0080
0140
0240
02E0
03FC
007E
002F
502F
347E
2FFD
0BE4
ENDCHAR
STARTCHAR onesuperior
ENCODING 185
SWIDTH 336 0
DWIDTH 11 0
BBX 9 14 1 14
BITMAP
000800
001C00
007800
02F800
19B800
00B800
00B800
00B800
00B800
00F800
01FC00
57FC00
6BFE00
001A80
ENDCHAR
STARTCHAR ordmasculine
ENCODING 186
SWIDTH 503 0
DWIDTH 16 0
BBX 14 14 1 10
BITMAP
01BFA000
0906FD00
24002F80
70000FD0
A00007E0
E00002F0
F00002F0
F00001F0
B40001F0
BC0001E0
3E0001D0
1F400280
07E40A00
006FE400
ENDCHAR
STARTCHAR guillemotright
ENCODING 187
SWIDTH 778 0
DWIDTH 25 0
BBX 23 30 1 -9
BITMAP
000010000000
000020000000
000028000000
50000D000000
60000B400000
340003D00000
2D0001F40000
0F40007D0000
0BE0002F8000
02FD000BE400
00BFE401FE00
002FFF907FD0
0007FFF43FF4
0000BFD0FFD0
0000BE03FE00
0002F80BF400
0007D02FD000
001F407F4000
003D00FD0000
00B802F40000
01E003E00000
02C007C00000
03400F400000
0B000F000000
09001E000000
08002C000000
000028000000
000028000000
000024000000
000010000000
ENDCHAR
STARTCHAR onequarter
ENCODING 188
SWIDTH 876 0
DWIDTH 28 0
BBX 27 30 1 0
BITMAP
00000000000400
00000000002400
0008000000A000
001C000001D000
00780000038000
02F800000B0000
19B800001D0000
00B80000380000
00B80000A00000
00B80002C00000
00B80007400000
00F8000E020000
01FC002C030000
57FC00B40B4000
6BFE01D00F4000
001A83802F4000
00000B007F8000
00001D008F8000
000038014B8040
0000A0020BC140
0002C00507C240
0007400807DB40
000E002AAFFF80
002C007FFFFF40
0074001543F000
00D0000003F000
0280000003F800
0700000007FE40
0D0000006FFFF4
28000000650000
ENDCHAR
STARTCHAR onehalf
ENCODING 189
SWIDTH 762 0
DWIDTH 24 0
BBX 23 32 1 -2
BITMAP
000000000004
000000000024
0008000000A0
001C000001D0
007800000380
02F800000B00
19B800001D00
00B800003800
00B80000A000
00B80002C000
00B800074000
00F8000E0000
01FC002C0000
57FC00B40000
6BFE01D0BE40
001A8382FFC0
00000B091BE0
00001D0407F0
0000380003F0
0000A00003F0
0002C00007E0
000740000BC0
000E00001F40
002C00007900
00740002D000
00D0006E0000
0280007F4014
0700000BE5A0
0D000001FF80
280000007E00
000000002C00
000000000400
ENDCHAR
STARTCHAR threequarters
ENCODING 190
SWIDTH 922 0
DWIDTH 30 0
BBX 29 30 0 0
BITMAP
0000000000005000
000100000000D000
1FFF000000028000
1FFE000000070000
181C0000001D0000
0434000000280000
0060000000B00000
00FF400001D00000
001BE00003800000
0002F8000B000000
1000FC002D000000
5000FD0074040000
5000FD00E0280000
6000FC02C0380000
3401F80740B80000
2D07F41E01FC0000
0BFFD02802FC0000
02FE40B0067C0000
000001D0087D0400
00000380143D0800
00000B00203E1C00
00001D00903E7C00
00003401EAFFFC00
0000A002FFFFFC00
0002C001552F4000
00074000002F8000
000E0000002FC000
00280000002FF400
0070000002FFFF80
0090000002500000
ENDCHAR
STARTCHAR questiondown
ENCODING 191
SWIDTH 571 0
DWIDTH 18 0
BBX 18 28 0 -3
BITMAP
0000BD0000
0001FF0000
0002FF4000
0002FF0000
0000BD0000
0000000000
0000900000
0000240000
0000180000
0000180000
0000280000
0000740000
0002E00000
000BC00000
007F400000
01FE02F900
07FC0BFF80
0FF80FFFD0
2FF40BFFE0
3FF007FFE0
3FF000BFE0
7FF0001FD0
3FF00007D0
3FF40007C0
1FF8000740
0BFD000A00
02FF906800
001BFE8000
ENDCHAR
STARTCHAR Agrave
ENCODING 192
SWIDTH 784 0
DWIDTH 25 0
BBX 26 37 0 -3
BITMAP
00280000000000
003F0000000000
001F8000000000
000BD000000000
0002E000000000
0000B400000000
00002800000000
00000000000000
000000A0000000
000006F0000000
00016FF4000000
001FBFF8000000
00000FFC000000
00001DFD000000
000018FE000000
000024BF000000
0000307F400000
0000603F800000
0000902FC00000
0000C01FD00000
0001800FE00000
0002E40FF00000
00036F9FF40000
000701BFF80000
000A000BFC0000
000D0002FD0000
001C0001FE0000
00280000FF0000
00740000BF4000
00B000007FC000
01E000003FD000
FFF000002FE000
05BD00002FF000
000600001FF800
000000001FFE40
000000007FFFD0
00000007950000
ENDCHAR
STARTCHAR Aacute
ENCODING 193
SWIDTH 784 0
DWIDTH 25 0
BBX 26 36 0 -3
BITMAP
00000074000000
000000F0000000
000002E0000000
000003C0000000
00000B40000000
00000900000000
00000000000000
000000A0000000
000006F0000000
00016FF4000000
001FBFF8000000
00000FFC000000
00001DFD000000
000018FE000000
000024BF000000
0000307F400000
0000603F800000
0000902FC00000
0000C01FD00000
0001800FE00000
0002E40FF00000
00036F9FF40000
000701BFF80000
000A000BFC0000
000D0002FD0000
001C0001FE0000
00280000FF0000
00740000BF4000
00B000007FC000
01E000003FD000
FFF000002FE000
05BD00002FF000
000600001FF800
000000001FFE40
000000007FFFD0
00000007950000
ENDCHAR
STARTCHAR Acircumflex
ENCODING 194
SWIDTH 784 0
DWIDTH 25 0
BBX 26 38 0 -3
BITMAP
00000180000000
000003D0000000
00000BF0000000
00001C7C000000
0000341F000000
00009007D00000
00024000B00000
00090000000000
00000000000000
000000A0000000
000006F0000000
00016FF4000000
001FBFF8000000
00000FFC000000
00001DFD000000
000018FE000000
000024BF000000
0000307F400000
0000603F800000
0000902FC00000
0000C01FD00000
0001800FE00000
0002E40FF00000
00036F9FF40000
000701BFF80000
000A000BFC0000
000D0002FD0000
001C0001FE0000
00280000FF0000
00740000BF4000
00B000007FC000
01E000003FD000
FFF000002FE000
05BD00002FF000
000600001FF800
000000001FFE40
000000007FFFD0
00000007950000
ENDCHAR
STARTCHAR Atilde
ENCODING 195
SWIDTH 784 0
DWIDTH 25 0
BBX 26 35 0 -3
BITMAP
0001F800000000
0007FF91800000
00092FFF800000
00040BFF400000
000001BD000000
00000000000000
000000A0000000
000006F0000000
00016FF4000000
001FBFF8000000
00000FFC000000
00001DFD000000
000018FE000000
000024BF000000
0000307F400000
0000603F800000
0000902FC00000
0000C01FD00000
0001800FE00000
0002E40FF00000
00036F9FF40000
000701BFF80000
000A000BFC0000
000D0002FD0000
001C0001FE0000
00280000FF0000
00740000BF4000
00B000007FC000
01E000003FD000
FFF000002FE000
05BD00002FF000
000600001FF800
000000001FFE40
000000007FFFD0
00000007950000
ENDCHAR
STARTCHAR Adieresis
ENCODING 196
SWIDTH 784 0
DWIDTH 25 0
BBX 26 36 0 -3
BITMAP
0000B800000000
0002FD1F000000
0002FD2F800000
0002FD3F400000
0000B81E000000
00000000000000
00000000000000
000000A0000000
000006F0000000
00016FF4000000
001FBFF8000000
00000FFC000000
00001DFD000000
000018FE000000
000024BF000000
0000307F400000
0000603F800000
0000902FC00000
0000C01FD00000
0001800FE00000
0002E40FF00000
00036F9FF40000
000701BFF80000
000A000BFC0000
000D0002FD0000
001C0001FE0000
00280000FF0000
00740000BF4000
00B000007FC000
01E000003FD000
FFF000002FE000
05BD00002FF000
000600001FF800
000000001FFE40
000000007FFFD0
00000007950000
ENDCHAR
STARTCHAR Aring
ENCODING 197
SWIDTH 784 0
DWIDTH 25 0
BBX 26 38 0 -3
BITMAP
00000BE0000000
0000282C000000
00007009000000
0000A00A000000
0000B00A000000
0000781D000000
00003FF8000000
00001BE0000000
00000000000000
000000A0000000
000006F0000000
00016FF4000000
001FBFF8000000
00000FFC000000
00001DFD000000
000018FE000000
000024BF000000
0000307F400000
0000603F800000
0000902FC00000
0000C01FD00000
0001800FE00000
0002E40FF00000
00036F9FF40000
000701BFF80000
000A000BFC0000
000D0002FD0000
001C0001FE0000
00280000FF0000
00740000BF4000
00B000007FC000
01E000003FD000
FFF000002FE000
05BD00002FF000
000600001FF800
000000001FFE40
000000007FFFD0
00000007950000
ENDCHAR
STARTCHAR AE
ENCODING 198
SWIDTH 1172 0
DWIDTH 38 0
BBX 38 32 0 -5
BITMAP
00000000000000190000
00000000000005FE0000
000000000001BFFE0000
0000000016BF900D0000
000000BFFFF800090000
00000001BBF800080000
0000000036F800080000
0000000032F800040000
0000000062FC00000000
0000000091FC00100000
0000000081FD00200000
0000000141FD00300000
0000000201FE00A00000
0000000601FE06F00000
0000000800FFFFF00000
0000000800FF40700000
0000002400FF00240140
0000003001FF40140240
0000007FFFFF40040280
000000E400BF80000380
0000018000BF80000380
0000034000BFC0000BC0
00000600007FD0001FC0
00000D00007FE000BFD0
00001800007FF00BFF90
00003400007FFAFE5000
0000B000007FFE400000
0001D00000BFD0000000
0003C00000F900000000
001F800007D000000000
01BFD0002D0000000000
BEAABE00100000000000
ENDCHAR
STARTCHAR Ccedilla
ENCODING 199
SWIDTH 742 0
DWIDTH 24 0
BBX 24 41 0 -13
BITMAP
000000000080
000000000080
0000000000C0
0000000000C0
0000000001C0
00006BFEABC0
000BE401BFD0
007F40001FD0
02FD000003E0
07F8000000F0
0FF000000070
2FE000000014
3FD000000000
7FC000000000
7FC000000000
BFC000000000
BFC000000000
BFC000000000
BFC000000000
BFC000000005
BFD000000005
BFE000000009
7FF000000009
3FF40000000C
2FF800000018
0FFE00000034
07FF400000A0
01FFE00002C0
007FFE406F40
000BFFFFF800
00006BFE9000
000000200000
000000500000
000000A40000
000000FF0000
0000001F8000
0000000BC000
0000140BC000
00000D1F8000
00000BFF4000
000001F90000
ENDCHAR
STARTCHAR Egrave
ENCODING 200
SWIDTH 557 0
DWIDTH 18 0
BBX 18 37 0 -3
BITMAP
0380000000
07E0000000
02F4000000
00BC000000
003E000000
000F000000
0002400000
0000000000
555556AF00
2FFE500B00
0BFD000700
07FD000300
03FD000200
02FD000200
02FD000000
01FD000000
01FD000000
01FD000000
00FD000000
00FE020000
00FE030000
00BFFF0000
00BE1B0000
00BE030000
007E020000
007F020000
007F000000
007F000000
003F000000
003F000000
003F400010
003F400020
003F400060
002F4000A0
007F8006D0
7FFFFABFD0
000156AB80
ENDCHAR
STARTCHAR Eacute
ENCODING 201
SWIDTH 557 0
DWIDTH 18 0
BBX 18 36 0 -3
BITMAP
0000028000
00000B4000
00001E0000
00003D0000
0000740000
0000900000
0000000000
555556AF00
2FFE500B00
0BFD000700
07FD000300
03FD000200
02FD000200
02FD000000
01FD000000
01FD000000
01FD000000
00FD000000
00FE020000
00FE030000
00BFFF0000
00BE1B0000
00BE030000
007E020000
007F020000
007F000000
007F000000
003F000000
003F000000
003F400010
003F400020
003F400060
002F4000A0
007F8006D0
7FFFFABFD0
000156AB80
ENDCHAR
STARTCHAR Ecircumflex
ENCODING 202
SWIDTH 557 0
DWIDTH 18 0
BBX 18 38 0 -3
BITMAP
0000900000
0001F40000
0002FC0000
000A2E0000
001C0B8000
003401F400
0090006C00
0200000000
0000000000
555556AF00
2FFE500B00
0BFD000700
07FD000300
03FD000200
02FD000200
02FD000000
01FD000000
01FD000000
01FD000000
00FD000000
00FE020000
00FE030000
00BFFF0000
00BE1B0000
00BE030000
007E020000
007F020000
007F000000
007F000000
003F000000
003F000000
003F400010
003F400020
003F400060
002F4000A0
007F8006D0
7FFFFABFD0
000156AB80
ENDCHAR
STARTCHAR Edieresis
ENCODING 203
SWIDTH 557 0
DWIDTH 18 0
BBX 18 35 0 -3
BITMAP
006D000000
00BF078000
00FF4FD000
00BF0FD000
007D0B8000
0000000000
555556AF00
2FFE500B00
0BFD000700
07FD000300
03FD000200
02FD000200
02FD000000
01FD000000
01FD000000
01FD000000
00FD000000
00FE020000
00FE030000
00BFFF0000
00BE1B0000
00BE030000
007E020000
007F020000
007F000000
007F000000
003F000000
003F000000
003F400010
003F400020
003F400060
002F4000A0
007F8006D0
7FFFFABFD0
000156AB80
ENDCHAR
STARTCHAR Igrave
ENCODING 204
SWIDTH 438 0
DWIDTH 14 0
BBX 18 42 -2 -6
BITMAP
0038000000
003E000000
002F400000
000BC00000
0002E00000
0000B00000
0000240000
0000000000
0000000000
1A9556AFE0
05BFFFD000
001FFF0000
000FFD0000
000BFC0000
000BFC0000
000BF80000
0007F80000
0007F40000
0007F40000
0007F00000
0007F00000
0007F00000
0007F00000
0007E00000
0007E00000
0007E00000
0007E00000
0007D00000
0007D00000
0007D00000
0007D00000
0007D00000
0007C00000
0007C00000
000BC00000
000BC00000
000BC00000
000BD00000
000FE40000
007FFFC000
06E5000000
7900000000
ENDCHAR
STARTCHAR Iacute
ENCODING 205
SWIDTH 438 0
DWIDTH 14 0
BBX 18 40 -2 -6
BITMAP
0000007000
000001F000
000002D000
0000078000
00000B0000
0000080000
0000000000
1A9556AFE0
05BFFFD000
001FFF0000
000FFD0000
000BFC0000
000BFC0000
000BF80000
0007F80000
0007F40000
0007F40000
0007F00000
0007F00000
0007F00000
0007F00000
0007E00000
0007E00000
0007E00000
0007E00000
0007D00000
0007D00000
0007D00000
0007D00000
0007D00000
0007C00000
0007C00000
000BC00000
000BC00000
000BC00000
000BD00000
000FE40000
007FFFC000
06E5000000
7900000000
ENDCHAR
STARTCHAR Icircumflex
ENCODING 206
SWIDTH 438 0
DWIDTH 14 0
BBX 18 42 -2 -6
BITMAP
0000240000
00007C0000
0000BF0000
00028B8000
000702E000
000C007D00
0024001B00
0080000000
0000000000
1A9556AFE0
05BFFFD000
001FFF0000
000FFD0000
000BFC0000
000BFC0000
000BF80000
0007F80000
0007F40000
0007F40000
0007F00000
0007F00000
0007F00000
0007F00000
0007E00000
0007E00000
0007E00000
0007E00000
0007D00000
0007D00000
0007D00000
0007D00000
0007D00000
0007C00000
0007C00000
000BC00000
000BC00000
000BC00000
000BD00000
000FE40000
007FFFC000
06E5000000
7900000000
ENDCHAR
STARTCHAR Idieresis
ENCODING 207
SWIDTH 438 0
DWIDTH 14 0
BBX 18 40 -2 -6
BITMAP
001F400000
003F82D000
007FC7F000
003F87F000
002E02D000
0000000000
0000000000
1A9556AFE0
05BFFFD000
001FFF0000
000FFD0000
000BFC0000
000BFC0000
000BF80000
0007F80000
0007F40000
0007F40000
0007F00000
0007F00000
0007F00000
0007F00000
0007E00000
0007E00000
0007E00000
0007E00000
0007D00000
0007D00000
0007D00000
0007D00000
0007D00000
0007C00000
0007C00000
000BC00000
000BC00000
000BC00000
000BD00000
000FE40000
007FFFC000
06E5000000
7900000000
ENDCHAR
STARTCHAR Eth
ENCODING 208
SWIDTH 730 0
DWIDTH 23 0
BBX 24 26 0 -7
BITMAP
0555AFFE4000
1AFF806FF900
007F8007FF40
003F8001FFD0
003F80007FF4
003F80003FF8
003F80002FFC
003F80001FFD
003F80000FFE
003F80000FFE
003F85000FFE
003FF9000FFE
6AFF80000FFD
153F80001FFD
003F80001FF8
003F80002FF4
003F80003FE0
003F8000BF80
007FC001FE00
007FC007E400
007FE06E4000
00BFFE500000
01F940000000
0A4000000000
640000000000
400000000000
ENDCHAR
STARTCHAR Ntilde
ENCODING 209
SWIDTH 799 0
DWIDTH 26 0
BBX 26 38 0 -7
BITMAP
000001F9000000
000007FF918000
0000092FFF8000
00000407FF4000
00000001BD0000
00000000000000
00000000000000
00000000000000
00140000000000
BFFF4000000590
01FFD000FFFE40
00BFF40007F400
00BFFD0001E000
0073FF4000D000
0071FFD000D000
00707FF400D000
00602FFC00D000
00600BFF00D000
006003FF80C000
006001FFE0C000
006000BFF9C000
0060002FFFC000
0070000FFFC000
00700007FFC000
00700001FFC000
00700000BFC000
007000002FC000
007000000FC000
00700000078000
00700000018000
00700000000000
00700000000000
00700000000000
00B00000000000
00F40000000000
06FC0000000000
BFFF4000000000
0006F000000000
ENDCHAR
STARTCHAR Ograve
ENCODING 210
SWIDTH 747 0
DWIDTH 24 0
BBX 24 34 0 1
BITMAP
001E00000000
001F80000000
000BD0000000
0003F0000000
0000F4000000
00003C000000
000009000000
000000000000
000000000000
000000000000
0001AFE90000
001F406FE000
00BC0002FD00
02F00000BF40
0BD000003FD0
1FC000002FF0
2F8000000FF4
3F4000000BFC
7F4000000BFD
BF40000007FD
BF00000007FE
BF40000003FE
BF40000003FE
BF40000003FE
BF80000003FD
7F80000003FD
3FC0000003FC
2FD0000007F8
1FE000000BF0
0BF400000FD0
02FC00002F80
00BF40007E00
001FE406E400
0001AFFA4000
ENDCHAR
STARTCHAR Oacute
ENCODING 211
SWIDTH 747 0
DWIDTH 24 0
BBX 24 32 0 1
BITMAP
000000740000
000000F00000
000002E00000
000003C00000
00000B400000
000009000000
000000000000
000000000000
0001AFE90000
001F406FE000
00BC0002FD00
02F00000BF40
0BD000003FD0
1FC000002FF0
2F8000000FF4
3F4000000BFC
7F4000000BFD
BF40000007FD
BF00000007FE
BF40000003FE
BF40000003FE
BF40000003FE
BF80000003FD
7F80000003FD
3FC0000003FC
2FD0000007F8
1FE000000BF0
0BF400000FD0
02FC00002F80
00BF40007E00
001FE406E400
0001AFFA4000
ENDCHAR
STARTCHAR Ocircumflex
ENCODING 212
SWIDTH 747 0
DWIDTH 24 0
BBX 24 33 0 1
BITMAP
000006000000
00000F400000
00002FC00000
000071F00000
0001C07C0000
0003401F4000
00090002C000
002400000000
000000000000
0001AFE90000
001F406FE000
00BC0002FD00
02F00000BF40
0BD000003FD0
1FC000002FF0
2F8000000FF4
3F4000000BFC
7F4000000BFD
BF40000007FD
BF00000007FE
BF40000003FE
BF40000003FE
BF40000003FE
BF80000003FD
7F80000003FD
3FC0000003FC
2FD0000007F8
1FE000000BF0
0BF400000FD0
02FC00002F80
00BF40007E00
001FE406E400
0001AFFA4000
ENDCHAR
STARTCHAR Otilde
ENCODING 213
SWIDTH 747 0
DWIDTH 24 0
BBX 24 31 0 1
BITMAP
0000B9000000
0002FFD09000
00021FFFC000
000502FF8000
0000006E0000
000000000000
000000000000
0001AFE90000
001F406FE000
00BC0002FD00
02F00000BF40
0BD000003FD0
1FC000002FF0
2F8000000FF4
3F4000000BFC
7F4000000BFD
BF40000007FD
BF00000007FE
BF40000003FE
BF40000003FE
BF40000003FE
BF80000003FD
7F80000003FD
3FC0000003FC
2FD0000007F8
1FE000000BF0
0BF400000FD0
02FC00002F80
00BF40007E00
001FE406E400
0001AFFA4000
ENDCHAR
STARTCHAR Odieresis
ENCODING 214
SWIDTH 747 0
DWIDTH 24 0
BBX 24 32 0 1
BITMAP
0001F4000000
0003FC2E0000
0003FC3F4000
0003FC3F4000
0001F42E0000
000000000000
000000000000
000000000000
0001AFE90000
001F406FE000
00BC0002FD00
02F00000BF40
0BD000003FD0
1FC000002FF0
2F8000000FF4
3F4000000BFC
7F4000000BFD
BF40000007FD
BF00000007FE
BF40000003FE
BF40000003FE
BF40000003FE
BF80000003FD
7F80000003FD
3FC0000003FC
2FD0000007F8
1FE000000BF0
0BF400000FD0
02FC00002F80
00BF40007E00
001FE406E400
0001AFFA4000
ENDCHAR
STARTCHAR multiply
ENCODING 215
SWIDTH 541 0
DWIDTH 17 0
BBX 15 19 1 0
BITMAP
00000018
00000074
000001E0
00000380
09000A00
07401C00
01E07400
0079D000
001F8000
000FD000
001D7800
00341E00
00A002C0
02C00000
07400000
0E000000
2C000000
74000000
10000000
ENDCHAR
STARTCHAR Oslash
ENCODING 216
SWIDTH 747 0
DWIDTH 24 0
BBX 24 31 0 -2
BITMAP
000000000008
000000000028
000000000070
0000000000D0
0001AFF90280
001F406FE740
00BC0002FE00
02F00000FF40
0BD000007FD0
1FC00001FFF0
2F8000039FF8
3F40000B0BFC
7F40001D0BFD
BF40003807FD
BF0000B003FE
BF0002D003FE
BF40074003FE
BF400E0003FE
BF402C0003FD
7F80740003FD
3FC0D00003FC
2FD2800007F8
1FEB00000BF0
0BFD00000FD0
02FC00002F80
00FF40007E00
01EFE406E400
0381AFFA4000
0A0000000000
1C0000000000
140000000000
ENDCHAR
STARTCHAR Ugrave
ENCODING 217
SWIDTH 690 0
DWIDTH 22 0
BBX 24 34 0 1
BITMAP
000078000000
00007E000000
00002F400000
00000FC00000
000003D00000
000001F00000
000000240000
000000000000
000000000000
000000000000
000000000000
000006D00000
0001BE000000
05AFF4000000
FFFFE0000000
07FFD07EAAA5
02FFC005FF40
01FF80002F00
00FF80001E00
00FF40000E00
00FF40000A00
00FF40000A00
00FF40000A00
00FF40000900
00BF80000900
00BF80000900
00BFC0000900
007FC0000C00
003FD0001800
001FE0002400
000FF4007000
0007FE02D000
0001FFFF4000
00001BF90000
ENDCHAR
STARTCHAR Uacute
ENCODING 218
SWIDTH 690 0
DWIDTH 22 0
BBX 24 29 0 1
BITMAP
000000000340
000000000F40
000000001E00
000000003C00
000000007400
000000009000
000006D00000
0001BE000000
05AFF4000000
FFFFE0000000
07FFD07EAAA5
02FFC005FF40
01FF80002F00
00FF80001E00
00FF40000E00
00FF40000A00
00FF40000A00
00FF40000A00
00FF40000900
00BF80000900
00BF80000900
00BFC0000900
007FC0000C00
003FD0001800
001FE0002400
000FF4007000
0007FE02D000
0001FFFF4000
00001BF90000
ENDCHAR
STARTCHAR Ucircumflex
ENCODING 219
SWIDTH 690 0
DWIDTH 22 0
BBX 24 32 0 1
BITMAP
000000200000
000000B80000
000001FD0000
0000034F4000
00000907D000
00002800F800
0000A0001D00
000140000000
000000000000
000006D00000
0001BE000000
05AFF4000000
FFFFE0000000
07FFD07EAAA5
02FFC005FF40
01FF80002F00
00FF80001E00
00FF40000E00
00FF40000A00
00FF40000A00
00FF40000A00
00FF40000900
00BF80000900
00BF80000900
00BFC0000900
007FC0000C00
003FD0001800
001FE0002400
000FF4007000
0007FE02D000
0001FFFF4000
00001BF90000
ENDCHAR
STARTCHAR Udieresis
ENCODING 220
SWIDTH 690 0
DWIDTH 22 0
BBX 24 32 0 1
BITMAP
00001F400000
00003F82E000
00007FC7F000
00003F87F000
00001E42D000
000000000000
000000000000
000000000000
000000000000
000006D00000
0001BE000000
05AFF4000000
FFFFE0000000
07FFD07EAAA5
02FFC005FF40
01FF80002F00
00FF80001E00
00FF40000E00
00FF40000A00
00FF40000A00
00FF40000A00
00FF40000900
00BF80000900
00BF80000900
00BFC0000900
007FC0000C00
003FD0001800
001FE0002400
000FF4007000
0007FE02D000
0001FFFF4000
00001BF90000
ENDCHAR
STARTCHAR Yacute
ENCODING 221
SWIDTH 796 0
DWIDTH 26 0
BBX 29 38 0 -4
BITMAP
0000000003400000
000000000F400000
000000002E000000
000000003C000000
0000000074000000
0000000090000000
0000190000000000
0016E40000000000
7FFF800001E90000
07FF4000002FFF40
00BFC000001D0000
002FE00000340000
000BF80000900000
0003FD0001800000
0000FF4006000000
00007FD00D000000
00002FF434000000
00000BFEE0000000
000007FFC0000000
000002FF80000000
000000FF40000000
0000007F00000000
0000007F00000000
0000003F00000000
0000003F00000000
0000003F00000000
0000007F00000000
0000007F40000000
0000007F40000000
0000007F40000000
0000007F40000000
000000BF40000000
000000BF80000000
000000FF80000000
000007FFC0000000
0001FFFFE0000000
00000006B8000000
0000000004000000
ENDCHAR
STARTCHAR Thorn
ENCODING 222
SWIDTH 479 0
DWIDTH 15 0
BBX 15 32 1 -3
BITMAP
FFFF8000
1FF80000
07F00000
03E00000
03E00000
03F40000
03FFF900
03F46FD0
03D00FF0
03D00BF8
03D007F8
03D007FC
07D003FC
07D007FC
07D007F8
07D00FF0
07D06FD0
07EBFA00
07D00000
07D00000
07D00000
07D00000
0BD00000
0BD00000
0BD00000
0BD00000
0BD00000
0BE00000
0FE00000
2FF40000
BFFE0000
50054000
ENDCHAR
STARTCHAR germandbls
ENCODING 223
SWIDTH 591 0
DWIDTH 19 0
BBX 20 34 -1 -3
BITMAP
00BF900000
0341F40000
0A007D0000
1D003E0000
2C002F0000
2C002F0000
2C001F0000
3C002F0000
2C002E0000
2D003D0000
2D007C0000
2E00F00000
2E02D00000
1F0A000000
1F6FFE4000
0F406FF900
0F8006FF40
0BC000BFD0
0BD0002FF0
07D0000FF8
07E00007FC
03F00003FC
03F40001FD
02F80000FD
02FC0000BD
01FD0000BD
01FE00007D
00FE0B407C
00FF1F8078
00FF5FC0B0
01FF9FE1D0
07E406FA00
1E00000000
A000000000
ENDCHAR
STARTCHAR agrave
ENCODING 224
SWIDTH 527 0
DWIDTH 17 0
BBX 18 32 0 -4
BITMAP
2800000000
3F00000000
1F80000000
0BD0000000
02E0000000
00B4000000
0028000000
0000000000
006F900000
0281F80000
07007D0000
0A003F0000
0F402F4000
0FE02F8000
0BF42F8000
07F81FC000
02F01FC000
00001FD000
00000FD000
01AFEFE000
0BD01FE000
2F000BF000
3E000BF000
7E000BF400
7E000BF400
7F807FF800
3FFFF7F820
2FFFC3FC20
06F902FD30
000001FFE0
000000BFD0
0000002F40
ENDCHAR
STARTCHAR aacute
ENCODING 225
SWIDTH 527 0
DWIDTH 17 0
BBX 18 31 0 -4
BITMAP
00001D0000
00003C0000
0000B80000
0000F00000
0002C00000
0002400000
0000000000
006F900000
0281F80000
07007D0000
0A003F0000
0F402F4000
0FE02F8000
0BF42F8000
07F81FC000
02F01FC000
00001FD000
00000FD000
01AFEFE000
0BD01FE000
2F000BF000
3E000BF000
7E000BF400
7E000BF400
7F807FF800
3FFFF7F820
2FFFC3FC20
06F902FD30
000001FFE0
000000BFD0
0000002F40
ENDCHAR
STARTCHAR acircumflex
ENCODING 226
SWIDTH 527 0
DWIDTH 17 0
BBX 18 32 0 -4
BITMAP
0002000000
0007800000
000FE00000
0028B80000
00A02E0000
01800B8000
060001A000
0800000000
006F900000
0281F80000
07007D0000
0A003F0000
0F402F4000
0FE02F8000
0BF42F8000
07F81FC000
02F01FC000
00001FD000
00000FD000
01AFEFE000
0BD01FE000
2F000BF000
3E000BF000
7E000BF400
7E000BF400
7F807FF800
3FFFF7F820
2FFFC3FC20
06F902FD30
000001FFE0
000000BFD0
0000002F40
ENDCHAR
STARTCHAR atilde
ENCODING 227
SWIDTH 527 0
DWIDTH 17 0
BBX 18 29 0 -4
BITMAP
007E400000
01FFE46000
024BFFE000
0101FFD000
00006F4000
006F900000
0281F80000
07007D0000
0A003F0000
0F402F4000
0FE02F8000
0BF42F8000
07F81FC000
02F01FC000
00001FD000
00000FD000
01AFEFE000
0BD01FE000
2F000BF000
3E000BF000
7E000BF400
7E000BF400
7F807FF800
3FFFF7F820
2FFFC3FC20
06F902FD30
000001FFE0
000000BFD0
0000002F40
ENDCHAR
STARTCHAR adieresis
ENCODING 228
SWIDTH 527 0
DWIDTH 17 0
BBX 18 29 0 -4
BITMAP
01F4000000
02F8F40000
02F5F40000
01E1F00000
0000000000
006F900000
0281F80000
07007D0000
0A003F0000
0F402F4000
0FE02F8000
0BF42F8000
07F81FC000
02F01FC000
00001FD000
00000FD000
01AFEFE000
0BD01FE000
2F000BF000
3E000BF000
7E000BF400
7E000BF400
7F807FF800
3FFFF7F820
2FFFC3FC20
06F902FD30
000001FFE0
000000BFD0
0000002F40
ENDCHAR
STARTCHAR aring
ENCODING 229
SWIDTH 527 0
DWIDTH 17 0
BBX 18 33 0 -4
BITMAP
001BE00000
0034280000
00A00D0000
00E0090000
00E00D0000
00B42C0000
007FF80000
001BE00000
0000000000
006F900000
0281F80000
07007D0000
0A003F0000
0F402F4000
0FE02F8000
0BF42F8000
07F81FC000
02F01FC000
00001FD000
00000FD000
01AFEFE000
0BD01FE000
2F000BF000
3E000BF000
7E000BF400
7E000BF400
7F807FF800
3FFFF7F820
2FFFC3FC20
06F902FD30
000001FFE0
000000BFD0
0000002F40
ENDCHAR
STARTCHAR ae
ENCODING 230
SWIDTH 700 0
DWIDTH 22 0
BBX 22 21 0 -3
BITMAP
0000001BF800
000000BFFF00
02F802D07F80
0E0A07401FC0
1C078D000FC0
2D02DC000FC0
2F02F8000F80
2F42F4002F40
1F42F4007E00
002FF406F400
01E2FFFE4000
0B41F8000050
1E00F8000060
3D00FC000070
7C00FE000070
7C01FF4000A0
7C02BFD000E0
7E076FF907D0
3FFF0FFFFF80
2FFD07FFFE00
07E400AFE400
ENDCHAR
STARTCHAR ccedilla
ENCODING 231
SWIDTH 437 0
DWIDTH 14 0
BBX 14 27 0 -7
BITMAP
001BF800
0091FF00
0340FF80
0A00BF80
1D00BF80
2D002E00
3C000000
7C000000
7C000240
7D0001C0
7D0000D0
7E000090
3F000090
2F4000D0
1FD001C0
0BF80B40
02FFFE00
006FE400
00020000
00074000
000BE000
0002FC00
0000BD00
00807D00
00A0BC00
007FF800
001BE000
ENDCHAR
STARTCHAR egrave
ENCODING 232
SWIDTH 434 0
DWIDTH 14 0
BBX 14 27 0 1
BITMAP
0B400000
0FC00000
07E00000
02F40000
00BC0000
002D0000
00060000
00000000
00000000
00000000
001BF800
00B82F40
07E00BC0
0FC00BD0
1F8007D0
3F400BD0
7F400FC0
7F402F40
7F40BD00
7FBFA080
7F4000C0
7F800090
3F800090
1FD000C0
0BF00180
02FD0700
006FE800
ENDCHAR
STARTCHAR eacute
ENCODING 233
SWIDTH 434 0
DWIDTH 14 0
BBX 14 25 0 1
BITMAP
00001C00
00007C00
0000B400
0001E000
0002C000
00020000
00000000
00000000
001BF800
00B82F40
07E00BC0
0FC00BD0
1F8007D0
3F400BD0
7F400FC0
7F402F40
7F40BD00
7FBFA080
7F4000C0
7F800090
3F800090
1FD000C0
0BF00180
02FD0700
006FE800
ENDCHAR
STARTCHAR ecircumflex
ENCODING 234
SWIDTH 434 0
DWIDTH 14 0
BBX 14 28 0 1
BITMAP
00020000
000B8000
001FD000
0034F400
00907D00
02800B80
060001D0
14000000
00000000
00000000
00000000
001BF800
00B82F40
07E00BC0
0FC00BD0
1F8007D0
3F400BD0
7F400FC0
7F402F40
7F40BD00
7FBFA080
7F4000C0
7F800090
3F800090
1FD000C0
0BF00180
02FD0700
006FE800
ENDCHAR
STARTCHAR edieresis
ENCODING 235
SWIDTH 434 0
DWIDTH 14 0
BBX 14 24 0 1
BITMAP
007C0000
00FD7C00
00FDBD00
00787800
00000000
00000000
00000000
001BF800
00B82F40
07E00BC0
0FC00BD0
1F8007D0
3F400BD0
7F400FC0
7F402F40
7F40BD00
7FBFA080
7F4000C0
7F800090
3F800090
1FD000C0
0BF00180
02FD0700
006FE800
ENDCHAR
STARTCHAR igrave
ENCODING 236
SWIDTH 301 0
DWIDTH 10 0
BBX 10 26 -1 3
BITMAP
E00000
F80000
BD0000
2F0000
0B8000
02C000
009000
000000
000000
000240
006F40
1FFF00
01FF00
00FF00
00BE00
00BE00
00BE00
00BD00
00BD00
00BD00
00BD00
00FC00
00FC00
00FC00
02FE40
1FAFF0
ENDCHAR
STARTCHAR iacute
ENCODING 237
SWIDTH 301 0
DWIDTH 10 0
BBX 9 24 0 3
BITMAP
000B00
001E00
003D00
00B400
00E000
018000
000000
000900
01BD00
7FFC00
07FC00
03FC00
02F800
02F800
02F800
02F400
02F400
02F400
02F400
03F000
03F000
03F000
0BF900
7EBFC0
ENDCHAR
STARTCHAR icircumflex
ENCODING 238
SWIDTH 301 0
DWIDTH 10 0
BBX 12 26 -1 3
BITMAP
002400
007C00
00FE00
028B80
0602E0
1800B8
60001A
800000
000000
000240
006F40
1FFF00
01FF00
00FF00
00BE00
00BE00
00BE00
00BD00
00BD00
00BD00
00BD00
00FC00
00FC00
00FC00
02FE40
1FAFF0
ENDCHAR
STARTCHAR idieresis
ENCODING 239
SWIDTH 301 0
DWIDTH 10 0
BBX 9 23 0 3
BITMAP
0B4000
1F8B40
2F9F80
0F4B40
000000
000000
000900
01BD00
7FFC00
07FC00
03FC00
02F800
02F800
02F800
02F400
02F400
02F400
02F400
03F000
03F000
03F000
0BF900
7EBFC0
ENDCHAR
STARTCHAR eth
ENCODING 240
SWIDTH 476 0
DWIDTH 15 0
BBX 18 28 -3 -3
BITMAP
0000001000
0000008000
0000014000
006FE60000
02906F4000
0E0027D000
340050F400
5000807C00
0001403E00
0000002F00
0000001F40
0000000F80
0000000FC0
0000000FD0
0000BF9FD0
0007D0BFE0
001F801FE0
002F000BE0
003F0007E0
007F0003E0
007F0003E0
007F0003E0
007F4002D0
003F8003C0
001FC00380
000BE00740
0002F81D00
00006FE400
ENDCHAR
STARTCHAR ntilde
ENCODING 241
SWIDTH 584 0
DWIDTH 19 0
BBX 19 27 0 -1
BITMAP
0000B90000
0002FFD090
00021FFFC0
000502FF80
0000006E00
0000000000
0060000000
00F0000000
03F006F800
2FF42FFF00
53F4A0BF80
02F8802FC0
01FA401FD0
01FA001FD0
00FE000FD0
00BE000FD0
00BD000FC0
007D000FC0
007D000FC0
003D000F80
003D001F80
002E001F80
002E002F40
003F4BFF80
07FFD05BC0
00005001A0
0000000014
ENDCHAR
STARTCHAR ograve
ENCODING 242
SWIDTH 400 0
DWIDTH 13 0
BBX 22 26 0 6
BITMAP
000000001F40
000000002FD0
000000002FD0
000000000BD0
0000000002D0
2D00000001C0
2F0000000180
1F8000000240
07D000000200
01F000000800
00B800002400
001800009000
000000064000
000001680000
01B7FE400000
0BD2F4000000
1F80FD000000
3F40BF000000
7E007F400000
BE007F400000
BE007F400000
7E007F400000
7E00BF000000
2F00FD000000
0B82F4000000
01BF80000000
ENDCHAR
STARTCHAR oacute
ENCODING 243
SWIDTH 400 0
DWIDTH 13 0
BBX 22 26 0 6
BITMAP
000000001F40
000000002FD0
000000002FD0
000000000BD0
0000000002D0
0000000001C0
00001C000180
00007C000240
0000B4000200
0001E0000800
0002C0002400
000200009000
000000064000
000001680000
01B7FE400000
0BD2F4000000
1F80FD000000
3F40BF000000
7E007F400000
BE007F400000
BE007F400000
7E007F400000
7E00BF000000
2F00FD000000
0B82F4000000
01BF80000000
ENDCHAR
STARTCHAR ocircumflex
ENCODING 244
SWIDTH 400 0
DWIDTH 13 0
BBX 22 26 0 6
BITMAP
000000001F40
000000002FD0
000000002FD0
000000000BD0
0000000002D0
0006000001C0
000F40000180
002FC0000240
0071F0000200
00D07C000800
02401F402400
090002C09000
240000064000
000001680000
01B7FE400000
0BD2F4000000
1F80FD000000
3F40BF000000
7E007F400000
BE007F400000
BE007F400000
7E007F400000
7E00BF000000
2F00FD000000
0B82F4000000
01BF80000000
ENDCHAR
STARTCHAR otilde
ENCODING 245
SWIDTH 400 0
DWIDTH 13 0
BBX 22 26 0 6
BITMAP
000000001F40
000000002FD0
000000002FD0
000000000BD0
0000000002D0
0000000001C0
000000000180
000000000240
007E00000200
01FFE4500800
025BFFD02400
0102FFC09000
00006F464000
000001680000
01B7FE400000
0BD2F4000000
1F80FD000000
3F40BF000000
7E007F400000
BE007F400000
BE007F400000
7E007F400000
7E00BF000000
2F00FD000000
0B82F4000000
01BF80000000
ENDCHAR
STARTCHAR odieresis
ENCODING 246
SWIDTH 400 0
DWIDTH 13 0
BBX 22 26 0 6
BITMAP
000000001F40
000000002FD0
000000002FD0
000000000BD0
0000000002D0
0000000001C0
000000000180
000000000240
00B800000200
01FCB8000800
01FCFC002400
00B4B4009000
000000064000
000001680000
01B7FE400000
0BD2F4000000
1F80FD000000
3F40BF000000
7E007F400000
BE007F400000
BE007F400000
7E007F400000
7E00BF000000
2F00FD000000
0B82F4000000
01BF80000000
ENDCHAR
STARTCHAR divide
ENCODING 247
SWIDTH 592 0
DWIDTH 19 0
BBX 17 12 1 3
BITMAP
0007D00000
000FE00000
0007D00000
0000000000
0000000000
0000000000
7FFFFEFE40
0000000000
0000000000
0007D00000
000FE00000
0007D00000
ENDCHAR
STARTCHAR oslash
ENCODING 248
SWIDTH 396 0
DWIDTH 13 0
BBX 12 20 0 1
BITMAP
000140
000340
000300
01BF90
0B8BF4
2F09BD
3E0C7E
7D187F
BD243F
BD347F
7D707F
7DA0BE
2ED0FC
0FC2F4
02FE40
028000
034000
070000
060000
050000
ENDCHAR
STARTCHAR ugrave
ENCODING 249
SWIDTH 744 0
DWIDTH 24 0
BBX 24 25 0 1
BITMAP
000380000000
0003E0000000
0002F4000000
0000BC000000
00002E000000
00000B000000
000002400000
000000000000
000800002400
002C0006F800
00BC01FFF800
07FD0002F800
7AFD0001F800
00BE0000F800
007E0000FC00
007F0000FC00
007F0001FC00
003F4001BD00
003F80027D00
002FC0023E00
001FE0063FEE
000FF81C2A50
000BFFF80000
0002FFF00000
0000BF800000
ENDCHAR
STARTCHAR uacute
ENCODING 250
SWIDTH 744 0
DWIDTH 24 0
BBX 24 23 0 1
BITMAP
000000740000
000000F00000
000002D00000
000007800000
00000B000000
000008000000
000800002400
002C0006F800
00BC01FFF800
07FD0002F800
7AFD0001F800
00BE0000F800
007E0000FC00
007F0000FC00
007F0001FC00
003F4001BD00
003F80027D00
002FC0023E00
001FE0063FEE
000FF81C2A50
000BFFF80000
0002FFF00000
0000BF800000
ENDCHAR
STARTCHAR ucircumflex
ENCODING 251
SWIDTH 744 0
DWIDTH 24 0
BBX 24 26 0 1
BITMAP
000018000000
00003D000000
0000BF000000
0001C7C00000
000341F00000
0009007D0000
0024000B4000
005000000000
000000000000
000800002400
002C0006F800
00BC01FFF800
07FD0002F800
7AFD0001F800
00BE0000F800
007E0000FC00
007F0000FC00
007F0001FC00
003F4001BD00
003F80027D00
002FC0023E00
001FE0063FEE
000FF81C2A50
000BFFF80000
0002FFF00000
0000BF800000
ENDCHAR
STARTCHAR udieresis
ENCODING 252
SWIDTH 744 0
DWIDTH 24 0
BBX 24 23 0 1
BITMAP
000078000000
0000FD780000
0001FCFC0000
0000B4B80000
000000000000
000000000000
000800002400
002C0006F800
00BC01FFF800
07FD0002F800
7AFD0001F800
00BE0000F800
007E0000FC00
007F0000FC00
007F0001FC00
003F4001BD00
003F80027D00
002FC0023E00
001FE0063FEE
000FF81C2A50
000BFFF80000
0002FFF00000
0000BF800000
ENDCHAR
STARTCHAR yacute
ENCODING 253
SWIDTH 659 0
DWIDTH 21 0
BBX 21 36 0 -14
BITMAP
0000000B0000
0000001E0000
0000003C0000
000000B40000
000090E00000
000781800000
007D00000540
1BF800FFFF40
7FF8001FFD00
07F80003FC00
07F80003FC00
03F80002FC00
03F80002FC00
02FC0002F800
01FC0003F800
00FD0003F800
00FE0007F800
00BF000BF400
003F801AF400
001FE476F000
000BFFD2F000
0001BE42E000
00000002E000
00000003D000
00000003C000
000000038000
000000074000
001F800B4000
007FE00B0000
008FF00D0000
014BF02C0000
0142D0340000
018000A00000
00C002C00000
00741A000000
001BE4000000
ENDCHAR
STARTCHAR thorn
ENCODING 254
SWIDTH 514 0
DWIDTH 16 0
BBX 18 47 -2 -20
BITMAP
0006000000
002D000000
06F4000000
7FF4000000
03F4000000
02F4000000
01F4000000
01F4000000
01F4000000
00F4000000
00F8000000
00F8BF9000
00FA47F800
00FD00FE00
00BC007F40
00BC003F80
00BC002FD0
00BC002FD0
00BC002FE0
00BC002FE0
00BD002FE0
00BD002FE0
00BD002FE0
00BE003FD0
00BF007FC0
00BF81FF80
007EBFFE00
007E1BE400
007E000000
007F000000
007F000000
007F000000
007F000000
007F000000
007F000000
007F400000
007F400000
007F400000
007F400000
00BF400000
00BF400000
00BF800000
00BF800000
00BF800000
01FFC00000
1FFFF50000
00005B8000
ENDCHAR
STARTCHAR ydieresis
ENCODING 255
SWIDTH 659 0
DWIDTH 21 0
BBX 21 38 0 -14
BITMAP
00001E000000
00003F5E0000
00003F6F4000
00002E1E0000
000000000000
000000000000
000090000000
000780000000
007D00000540
1BF800FFFF40
7FF8001FFD00
07F80003FC00
07F80003FC00
03F80002FC00
03F80002FC00
02FC0002F800
01FC0003F800
00FD0003F800
00FE0007F800
00BF000BF400
003F801AF400
001FE476F000
000BFFD2F000
0001BE42E000
00000002E000
00000003D000
00000003C000
000000038000
000000074000
001F800B4000
007FE00B0000
008FF00D0000
014BF02C0000
0142D0340000
018000A00000
00C002C00000
00741A000000
001BE4000000
ENDCHAR
STARTCHAR dotlessi
ENCODING 305
SWIDTH 301 0
DWIDTH 10 0
BBX 9 17 0 3
BITMAP
000900
01BD00
7FFC00
07FC00
03FC00
02F800
02F800
02F800
02F400
02F400
02F400
02F400
03F000
03F000
03F000
0BF900
7EBFC0
ENDCHAR
STARTCHAR OE
ENCODING 338
SWIDTH 1132 0
DWIDTH 36 0
BBX 37 33 0 -5
BITMAP
00000000000000010000
000000000000001B4000
00000000000001BF4000
000000000001BE974000
0001AFF907FF90024000
001F901BD1FF00018000
00BD0000B8BF00008000
02F400002EBF00004000
0BE000000FFF00000000
1FC0000007FF00000000
2FC0000002FF00000000
7F80000001FF40000000
7F80000000FF40040000
BF80000000BF40080000
BF80000000BF40180000
BF800000007F81B80000
BFC00000007FFAB80000
BFD00000007F80180000
7FE00000007F80080000
3FF4000000BF80080000
2FF8000000FF80000000
0FFD000001FFC0000000
07FF400003FFC0000140
02FFE0000B7FC0000240
007FFD01B87FC0000200
001BFFFFE07FC0000300
00006FF9007FD0000700
00000000007FD0000F00
00000000007FD0007F00
00000000007FE05AFF00
0000000000BFFFFFFF00
0000000006F950000400
00000000290000000000
ENDCHAR
STARTCHAR oe
ENCODING 339
SWIDTH 798 0
DWIDTH 26 0
BBX 25 15 0 2
BITMAP
00BF90006F9000
0781FD02E0B800
1F003F4B803D00
2E001FDF402D00
3E000FFF003D00
7E0007FF007C00
7E0003FF41F400
7F0003FFBF8240
7F4002FF0001C0
3F8002FF4000C0
2FD002FF8000C0
0BE0036FD00180
02F91A0FF80B40
006FE402FFFD00
000000006FE400
ENDCHAR
STARTCHAR circumflex
ENCODING 710
SWIDTH 483 0
DWIDTH 15 0
BBX 12 8 2 21
BITMAP
002400
007800
00FE00
028B80
0A02E0
1800B8
60001A
800000
ENDCHAR
STARTCHAR caron
ENCODING 711
SWIDTH 428 0
DWIDTH 14 0
BBX 10 9 2 22
BITMAP
000010
400090
E00240
780A00
1E2C00
0BF400
03E000
02D000
018000
ENDCHAR
STARTCHAR ring
ENCODING 730
SWIDTH 330 0
DWIDTH 11 0
BBX 8 8 1 27
BITMAP
07E4
291D
3406
7007
7407
791E
2FFC
0BE4
ENDCHAR
STARTCHAR tilde
ENCODING 732
SWIDTH 433 0
DWIDTH 14 0
BBX 11 5 1 23
BITMAP
0B9000
2FFD08
21FFFC
502FF8
0007E0
ENDCHAR
STARTCHAR mu.dup1
ENCODING 956
SWIDTH 634 0
DWIDTH 20 0
BBX 20 27 1 -11
BITMAP
BD00005000
BD000BE000
BC000FE000
BC000BE000
BC0007E000
BD0003F000
BD0003F000
BE0003F020
BE0003F418
BF0003F40C
7F8007F809
7ED009FC09
7E7418BE1C
7E1BE03FF8
7E00000BE0
7E00000000
7F00000000
7F00000000
7F00000000
3F40000000
3F40000000
3F40000000
3F80000000
3F80000000
3FC0000000
3F80000000
1000000000
ENDCHAR
STARTCHAR endash
ENCODING 8211
SWIDTH 436 0
DWIDTH 14 0
BBX 10 2 2 6
BITMAP
500050
AFFFE0
ENDCHAR
STARTCHAR emdash
ENCODING 8212
SWIDTH 651 0
DWIDTH 21 0
BBX 18 2 1 7
BITMAP
0156AABFF0
7FAA555000
ENDCHAR
STARTCHAR quoteleft
ENCODING 8216
SWIDTH 287 0
DWIDTH 9 0
BBX 7 10 1 17
BITMAP
0064
0280
0B40
1F00
3F80
7FD0
7FE0
7FF0
3FE0
1B80
ENDCHAR
STARTCHAR quoteright
ENCODING 8217
SWIDTH 291 0
DWIDTH 9 0
BBX 7 11 1 15
BITMAP
1F80
7FF0
7FF4
7FF8
1FF8
07F8
00F4
00B0
00A0
0280
0A00
ENDCHAR
STARTCHAR quotesinglbase
ENCODING 8218
SWIDTH 272 0
DWIDTH 9 0
BBX 6 11 1 -6
BITMAP
1F80
3FE0
7FF0
3FF0
1FF0
03E0
01D0
01C0
0280
0700
0800
ENDCHAR
STARTCHAR quotedblleft
ENCODING 8220
SWIDTH 445 0
DWIDTH 14 0
BBX 12 12 1 14
BITMAP
001800
00A018
028070
0B40E0
1F01E0
2F02F0
3F42FC
7FC3FE
7FE2FE
7FE0B8
3FE000
1B8000
ENDCHAR
STARTCHAR quotedblright
ENCODING 8221
SWIDTH 444 0
DWIDTH 14 0
BBX 12 12 1 15
BITMAP
1F4000
7FD1F4
7FE3FD
3FE7FE
1FE3FE
07E2FD
02D0BD
02C078
0340B4
0A01D0
080740
001800
ENDCHAR
STARTCHAR quotedblbase
ENCODING 8222
SWIDTH 482 0
DWIDTH 15 0
BBX 13 12 1 -8
BITMAP
1B800000
3FF07E00
7FF4FF80
3FF9FF80
2FF8FF80
0BF47F80
01F42F40
00F01F00
00D01D00
01803800
0200A000
00018000
ENDCHAR
STARTCHAR bullet
ENCODING 8226
SWIDTH 351 0
DWIDTH 11 0
BBX 9 8 1 9
BITMAP
06F800
2FFE00
3FFF40
7FFF80
7FFF80
7FFF40
2FFE00
0BF800
ENDCHAR
STARTCHAR guilsinglleft
ENCODING 8249
SWIDTH 465 0
DWIDTH 15 0
BBX 12 19 1 -2
BITMAP
000020
000060
0000D0
000280
000740
001E00
007D00
02F800
0BF000
7FF000
2FF800
07FD00
00BF40
001FC0
0007E0
0001F4
00007C
00001E
000007
ENDCHAR
STARTCHAR guilsinglright
ENCODING 8250
SWIDTH 449 0
DWIDTH 14 0
BBX 12 20 1 -3
BITMAP
180000
0D0000
0B0000
03C000
01F000
00FD00
007F40
002FF4
001FFE
002FF4
007FC0
00BE00
01F800
03E000
0BC000
0F4000
1D0000
280000
340000
600000
ENDCHAR
STARTCHAR fraction
ENCODING 8260
SWIDTH 406 0
DWIDTH 13 0
BBX 22 30 -5 0
BITMAP
000000000010
000000000090
0000000001C0
000000000740
000000000E00
000000002C00
000000007400
00000000E000
000000028000
0000000B0000
0000001D0000
000000380000
000000B00000
000001D00000
000007800000
00000E000000
00002C000000
000074000000
0000E0000000
000280000000
000740000000
001D00000000
003800000000
00B000000000
01D000000000
034000000000
0A0000000000
1C0000000000
340000000000
A00000000000
ENDCHAR
STARTCHAR foursuperior
ENCODING 8308
SWIDTH 473 0
DWIDTH 15 0
BBX 14 19 1 11
BITMAP
00080000
000D0000
002D0000
003D0000
00BE0000
00FE0000
027E0000
062F0100
082F0100
141F0900
201F6D00
AABFFE00
FFFFFE00
550FC000
000FD000
000FE000
001FF900
01BFFFD0
01940000
ENDCHAR
STARTCHAR Euro
ENCODING 8364
SWIDTH 799 0
DWIDTH 26 0
BBX 27 28 0 -1
BITMAP
00000000000004
00000000000018
0000006BFA4034
000007F901E5A0
00002F90003FD0
0000FF00001FC0
0002FD00000B80
000BF800000740
000FF000000340
002FE000000300
003FD001400200
007FC06D000000
00BFDB90000000
00FFE400000000
06FF8068000000
7EFF9B90000000
00FFF800000000
06FF8000000000
BFFF8000002000
E8BFC000002000
007FC000002000
003FD000002000
002FF000006000
000FF40000D000
0007FD00028000
0001FF901B0000
00007FFFF80000
000006FF900000
ENDCHAR
STARTCHAR minus
ENCODING 8722
SWIDTH 436 0
DWIDTH 14 0
BBX 10 2 2 6
BITMAP
500050
AFFFE0
ENDCHAR
STARTCHAR f_f
ENCODING 64256
SWIDTH 467 0
DWIDTH 15 0
BBX 18 48 1 -12
BITMAP
0006F80000
001FFE0000
0035FF0000
0090FF4000
00C0FF0000
02807D0000
024002FE00
03401D0FC0
0700340BD0
0700B01FE0
0B00E03FE0
0B01D0BFE0
0F02C0FFD0
0F03C0BFC0
0F03C02F40
0F03C00000
0F07C00000
0F07C00000
0F07C54000
0FAFFE9000
7F97D00000
5F43D00000
0F43D00000
0F42E00000
0F42E00000
0F82F00000
0F81F00000
0F81F40000
0BC0F80000
0BC0F80000
0BD0BC0000
0BD0BD0000
0BE07E0000
07E07F0000
07F03F8000
07F02FD000
03F02FFD00
03F42F9000
03F4740000
03F8800000
02F8000000
02FC000000
02FD000000
02FE000000
02FF000000
03FF400000
1BFFD00000
FEBFFE0000
ENDCHAR
STARTCHAR .notdef
ENCODING -1
SWIDTH 270 0
DWIDTH 9 0
BBX 7 20 1 0
BITMAP
BFF4
0000
0000
0000
0000
0000
0000
0000
0000
0000
0000
0000
0000
0000
0000
0000
0000
0000
0000
BFF4
ENDCHAR
STARTCHAR .null
ENCODING -1
SWIDTH 0 0
DWIDTH 0 0
BBX 1 1 0 0
BITMAP
00
ENDCHAR
STARTCHAR nonmarkingreturn
ENCODING -1
SWIDTH 270 0
DWIDTH 9 0
BBX 1 1 0 0
BITMAP
00
ENDCHAR
STARTCHAR dieresis.case
ENCODING -1
SWIDTH 393 0
DWIDTH 13 0
BBX 10 5 1 24
BITMAP
1F4000
7F82D0
7F87F0
7F87F0
2E03D0
ENDCHAR
STARTCHAR o.cmp
ENCODING -1
SWIDTH 400 0
DWIDTH 13 0
BBX 22 26 0 6
BITMAP
000000001F40
000000002FD0
000000002FD0
000000000BD0
0000000002D0
0000000001C0
000000000180
000000000240
000000000200
000000000800
000000002400
000000009000
000000064000
000001680000
01B7FE400000
0BD2F4000000
1F80FD000000
3F40BF000000
7E007F400000
BE007F400000
BE007F400000
7E007F400000
7E00BF000000
2F00FD000000
0B82F4000000
01BF80000000
ENDCHAR
STARTCHAR n_n
ENCODING -1
SWIDTH 1024 0
DWIDTH 33 0
BBX 33 21 0 -1
BITMAP
002000000000000000
00B000000000000000
02F006F80000000000
1FF42FFF0068000000
ABF460BF8FFC000000
02F8802FC1FC2F9000
02FA401FD0FCBFF400
01FA001FD0FA82FC00
00FE000FD0FE00FD00
00BE000FD0FD00FE00
00BD000FC1FC00BE00
007D000FC1FC00BE00
007D000FC1FC00FE00
003D000F81FC00FD00
003D001F81FC01FD00
002E001F81FD01FC00
002E002F47FE87FC00
003F4BFF8940BFFD00
07FFD06FD000005B40
00005002F400000000
000000002800000000
ENDCHAR
STARTCHAR a_a
ENCODING -1
SWIDTH 911 0
DWIDTH 29 0
BBX 31 22 0 -2
BITMAP
000000006FE40000
00000001E07D0000
00000007C01F4000
0000000BD00B8000
01FE000FF007C000
0A07800BF007D000
1D02D007E007E000
3D00E0000007E000
3F00F0000007E000
3F40F006FF97E000
1E00B42F906FE000
0000F47E000BF000
00AFF4FCB40BF000
0BE4B4FCF80BF000
2F80B4FC280BF000
3F40F8FD180FF000
7F00F87F587BF000
7F01FC2FFFDBF000
7F867E06F907F014
2FFE1F818003F414
0BF802FE0001F820
0000000000006F80
ENDCHAR
STARTCHAR t_h
ENCODING -1
SWIDTH 854 0
DWIDTH 27 0
BBX 29 41 -1 -7
BITMAP
0000000240000000
0000001F80000000
000005FF80000000
0000FFFF80000000
0000007F40000000
0000002F40000000
0000001F40000000
0000001F40000000
0000001F40000000
0000181F00000000
0000342F00000000
0000B02F00000000
0007E02F00000000
006FF02F00000000
6FFFFFFFF0000000
142FD03E00000000
001FC03E00000000
002F803E06FE0000
002F803E281BD000
002F403E9003F400
003F403F8002F800
003F407F4001FC00
003F407F0000FD00
003F407E0000FE00
003F407E07D0FE00
002F407D0BF0FE00
002F80BD0BF0FD00
001F80BD03E0FD00
000FC0BD02E0FD00
0007E0BD02C1FC00
0002F4FD0341FC00
0000BEFD5D01FC00
000006FFA002F800
000001FE0003F400
000003FF0003F400
00002FFFD007F000
0000E501B80FF000
00000000007FF400
0000000007FFF800
0000000000007D00
0000000000000740
ENDCHAR
STARTCHAR s_s
ENCODING -1
SWIDTH 654 0
DWIDTH 21 0
BBX 22 28 -1 -5
BITMAP
000000100080
0002FAC00180
000F4786FF80
002E022E0B40
002E017C0340
002E00BC0140
002F40BC0140
001FC0BD0000
000BE07E0000
0003F83F4000
0001FE2F8000
00007F9FE000
00002FEBF400
00000BF7FC00
000003FAFE00
060002FCFF00
0A01B4FCBF80
0A03FCFC7FC0
0E07F8F83FD0
2F07D1F42FD0
268702E02FD0
40AA1B802FD0
001BF9002FD0
000200002FC0
000180003F40
00009000BE00
00002906F800
000006FE9000
ENDCHAR
STARTCHAR t_t
ENCODING -1
SWIDTH 569 0
DWIDTH 18 0
BBX 18 29 0 -3
BITMAP
00001F4000
00002F4000
00023F0000
000A3F0000
000D3F0040
002D7F1A00
00BC7FE400
0BFFFF0000
BFFEFE0000
03F8BD0000
02F8BD0000
03F4BC0000
03F4BC0000
03F4BC0000
03F0BC0000
03F07C0000
07F07D0780
07F03D0FF0
03F03E0BF0
03F02F01B0
03F40F8070
02F407E090
01F400BF40
00F8002E00
00BC007F00
003D00BF00
001F00FE00
000791FD00
00006FE000
ENDCHAR
STARTCHAR e_e
ENCODING -1
SWIDTH 782 0
DWIDTH 25 0
BBX 25 18 0 0
BITMAP
00AF8006FE0000
07D1F02F47D000
1F4074BC01E000
3F0079F800F000
7E0076F400B400
BE00B7F000B400
BD00E7F000F000
FD02C7F000F000
BE6E07F001E000
BFE407F002C000
7F0003F4078600
3F8003F80E0340
1FD002FC280240
07F400FEA00280
00BE40BF800340
0016FFAFE41B00
00000007FFFD00
000000006FE400
ENDCHAR
STARTCHAR o_o
ENCODING -1
SWIDTH 751 0
DWIDTH 24 0
BBX 33 28 0 2
BITMAP
000000000000006E00
00000000000000BF40
000000000000007F80
000000000000002F80
000000000000000B40
000000000000000340
000000000000000700
000000000000000600
000000000000000C00
000000000000002400
000000000000006000
000000000000018000
0000000000001A0000
002BF9000005A40000
02F81B878FFA400000
0BD003FD07E0000000
1F8002F402F4000000
2F4001F001FC000000
3F0003F400FD000000
7F0007F800FD000000
7E0007F800BD000000
7E0007F400FD000000
7E0003F400FC000000
3F0003F002F4000000
2F0007F90BD0000000
1F800B9BFA00000000
07E06E000000000000
006FE4000000000000
ENDCHAR
STARTCHAR l_l
ENCODING -1
SWIDTH 573 0
DWIDTH 18 0
BBX 21 32 -2 -5
BITMAP
000600024000
001E001B4000
00BE01BF4000
06FE1FFF4000
24BE00FF4000
00BE00BF4000
00BE007F4000
00BE007F4000
00BE007F4000
00BE007F4000
00BE007F4000
007E003F4000
007E003F4000
007F003F4000
007F003F4000
007F003F8000
007F003F8000
007F003F8000
007F003F8000
00BF003F8000
00BF003FC000
00BF003FC000
00BF002FC000
00BF003FD000
00BF003FE000
00BF407FF400
00BF46FABF40
00FF40000000
7FFF80000000
05AFD0000000
0001B8000000
000019000000
ENDCHAR
STARTCHAR z_z
ENCODING -1
SWIDTH 875 0
DWIDTH 28 0
BBX 30 22 -1 -2
BITMAP
000029001B400000
00002FFFFF000000
000020007E000000
000010007D000000
03A501A0BC000000
0341FFE1F8000000
0200FF82F0000000
0101FF03E0000000
0103FD0BD0000000
0007F80FC0000000
000FF02F80000000
001FD03F40140000
003F80BF00240000
00BF00FE00341F40
00FD02FD01B43FC0
02F803FFFFF43FD0
07F003A400003FD0
0BD0000000001FC0
1FEBFE9000000F80
3E5016FE40000F00
64000016F9406800
000000001AFF9000
ENDCHAR
STARTCHAR j_j
ENCODING -1
SWIDTH 577 0
DWIDTH 18 0
BBX 22 44 -4 -20
BITMAP
0000001F8000
0000003FD000
0000003FD000
00002E3FC000
00003F5F4000
00007F400000
00002E05B400
000000BFFC00
0000000BFD00
00100592FE00
001BFFE1FE00
0000BFF0BF00
00002FF47F40
00000FF43F80
00000BF42F80
000007F81FC0
000003F80FC0
000002F80FC0
000002FC0BD0
000001FC0BD0
000001FC07D0
000000FC07E0
000000FC03E0
000000FC03E0
000000BC03E0
000000BC02E0
000000BC02E0
000000BC02E0
000000B802E0
06F400B802E0
1FFC00F402E0
3FFD00F402E0
7FFC00F002E0
BF9001E002D0
B80002D002D0
7400038002C0
74000B400380
28001D000380
0A41BBD00740
01BF8FF00A00
00000FF40D00
00000FFD2800
000007FFE000
000001BE4000
ENDCHAR
STARTCHAR f_b
ENCODING -1
SWIDTH 731 0
DWIDTH 23 0
BBX 26 41 -2 -5
BITMAP
000007F8000000
0000281F000000
0000A007800000
0001C007C00000
0002800BC00000
0003406FC00000
000742FFC00000
000B07FF800000
000F07FF000000
000F02FD900000
001F0006D00000
001F01AFD00000
002F02FFD00000
003F95AFD00000
15FFE50BD00000
6ABF4007D00000
003F4007D00000
003F4007D00000
002F4007D00000
002F4007D00000
002F4003D00000
002F4003D00000
002F4003D00000
002F4003D00000
002F4003D00000
002F4003DAF900
002F8003F47F40
002F8003E02FC0
002F8003D01FD0
002F8003D01FD0
002F8003C01FD0
002F8003D02FD0
002F8007D03FC0
002F800BE0BF40
002F802FFFF900
002FC0E4010000
002FC000000000
003FE000000000
007FFF80000000
02E40000000000
09000000000000
ENDCHAR
STARTCHAR f_k
ENCODING -1
SWIDTH 708 0
DWIDTH 23 0
BBX 22 36 1 -4
BITMAP
000090000000
0002D0000000
006FD0000000
1BFFFF900000
001FD1F80000
002FD0FC0000
0077D2FD0000
00E7D7FD0000
01D7DBFD0000
02C7D7FC0000
03C3D2F40000
0783D0000000
0783E0000000
0B83E0000000
6F83E0400000
4B43E0A50000
0F43E01FE800
0F43E00E0000
0F43E0280000
0F43E0600000
0F43F1C00000
0F43F7D00000
0F43FBD00000
0F43F3E00500
0F43F2F40240
0F43F5F80080
0F43F4FD0090
0F42F47E0090
0F42F42F91D0
1F42F80BFF80
1F82F801BE00
2F83F8000000
FFD3FC000000
005BFE540000
02BFFFFD0000
015000540000
ENDCHAR
STARTCHAR f_h
ENCODING -1
SWIDTH 873 0
DWIDTH 28 0
BBX 30 41 -2 -5
BITMAP
000007F800000000
0000281F00000000
0000A00780000000
0001C007C0000000
0002800BC0000000
0003407FC0000000
000743FFC0000000
000B07FF88000000
000B03FE2C000000
000F01A5B8000000
000F001BF8000000
001F02FFF8000000
001F0102F4000000
002F9591F4000000
00BFF941F4000000
7FFF8001F4000000
003F4001F0000000
003F4001F0000000
003F4001F0000000
002F4001F0000000
002F4001F0000000
002F4002F0000000
002F4002F0000000
002F4002E06F8000
002F4002E2FFF400
002F4002E747F800
002F8003ED02FC00
002F8003F801FD00
002F8003F400FD00
002F8003F000FD00
002F8007F000FD00
002F8007E000FD00
002F8007E001FD00
002F800BD001FD00
002F800FD001FE00
002FC02FE003FFE0
002FC3FFF8194050
003FE00059000000
003FFE8000000000
01A5000000000000
0900000000000000
ENDCHAR
ENDFONT
